<svg width="502" height="76" viewBox="0 0 502 76" fill="none" xmlns="http://www.w3.org/2000/svg">
<g clip-path="url(#clip0_1_14)">
<path d="M39.2869 50.128C36.0741 50.128 33.2848 51.8934 31.7701 54.4869C31.0193 55.7728 30.5565 57.2549 30.5565 58.8459C30.5565 63.6495 34.4721 67.5638 39.2869 67.5638C44.1018 67.5638 48.0174 63.6495 48.0174 58.8459C48.0174 57.2549 47.559 55.7728 46.8038 54.4869C45.289 51.8934 42.5041 50.128 39.2869 50.128Z" fill="#3B3C98"/>
<path d="M100.4 50.128C97.1872 50.128 94.3979 51.8934 92.8832 54.4869C92.1323 55.7728 91.6696 57.2549 91.6696 58.8459C91.6696 63.6495 95.5852 67.5638 100.4 67.5638C105.215 67.5638 109.13 63.6495 109.13 58.8459C109.13 57.2549 108.672 55.7728 107.917 54.4869C106.402 51.8934 103.617 50.128 100.4 50.128Z" fill="#3B3C98"/>
<path d="M126.591 41.4101V37.0511L100.4 29.5755L69.8435 10.8974H21.8261V15.2564H48.0174V19.6153H-1.52588e-05V23.9743H52.3826V28.3332H8.73042V32.6922H30.5565V37.0511H21.8261V41.4101H4.3652V45.7691H26.1913V50.128H21.8261V54.487H8.73042V58.8459H26.1913C26.1913 57.3116 26.5055 55.8557 26.9944 54.487C28.8016 49.4219 33.5947 45.7691 39.2869 45.7691C44.9836 45.7691 49.7722 49.4219 51.5794 54.487C52.064 55.8557 52.3826 57.3116 52.3826 58.8459H87.3043C87.3043 57.3116 87.6186 55.8557 88.1075 54.487C89.9147 49.4219 94.7077 45.7691 100.4 45.7691C106.097 45.7691 110.885 49.4219 112.692 54.487C113.177 55.8557 113.496 57.3116 113.496 58.8459H126.591V54.487H130.957V41.4101H126.591Z" fill="#3B3C98"/>
<mask id="path-4-outside-1_1_14" maskUnits="userSpaceOnUse" x="142" y="22" width="328" height="37" fill="black">
<rect fill="white" x="142" y="22" width="328" height="37"/>
<path d="M143.15 57V24.6H147.403L159.148 48.9675L170.825 24.6H175.123V56.9775H170.668V34.815L160.205 57H158.068L147.583 34.815V57H143.15ZM191.979 57.675C189.549 57.675 187.441 57.1275 185.656 56.0325C183.871 54.9375 182.491 53.43 181.516 51.51C180.556 49.575 180.076 47.3475 180.076 44.8275C180.076 42.2925 180.571 40.065 181.561 38.145C182.551 36.21 183.939 34.71 185.724 33.645C187.509 32.565 189.594 32.025 191.979 32.025C194.409 32.025 196.516 32.5725 198.301 33.6675C200.086 34.7625 201.466 36.27 202.441 38.19C203.416 40.11 203.904 42.3225 203.904 44.8275C203.904 47.3625 203.409 49.5975 202.419 51.5325C201.444 53.4525 200.064 54.96 198.279 56.055C196.494 57.135 194.394 57.675 191.979 57.675ZM191.979 53.2425C194.304 53.2425 196.036 52.4625 197.176 50.9025C198.331 49.3275 198.909 47.3025 198.909 44.8275C198.909 42.2925 198.324 40.2675 197.154 38.7525C195.999 37.2225 194.274 36.4575 191.979 36.4575C190.404 36.4575 189.106 36.8175 188.086 37.5375C187.066 38.2425 186.309 39.225 185.814 40.485C185.319 41.73 185.071 43.1775 185.071 44.8275C185.071 47.3775 185.656 49.4175 186.826 50.9475C187.996 52.4775 189.714 53.2425 191.979 53.2425ZM222.753 57C221.223 57.3 219.723 57.4275 218.253 57.3825C216.783 57.3375 215.471 57.0525 214.316 56.5275C213.161 56.0025 212.291 55.1775 211.706 54.0525C211.181 53.0475 210.896 52.0275 210.851 50.9925C210.821 49.9425 210.806 48.7575 210.806 47.4375V25.95H215.531V47.2125C215.531 48.1875 215.538 49.035 215.553 49.755C215.583 50.475 215.741 51.0825 216.026 51.5775C216.566 52.5075 217.421 53.04 218.591 53.175C219.776 53.295 221.163 53.2425 222.753 53.0175V57ZM206.148 36.48V32.7H222.753V36.48H206.148ZM237.33 57.675C234.9 57.675 232.793 57.1275 231.008 56.0325C229.223 54.9375 227.843 53.43 226.868 51.51C225.908 49.575 225.428 47.3475 225.428 44.8275C225.428 42.2925 225.923 40.065 226.913 38.145C227.903 36.21 229.29 34.71 231.075 33.645C232.86 32.565 234.945 32.025 237.33 32.025C239.76 32.025 241.868 32.5725 243.653 33.6675C245.438 34.7625 246.818 36.27 247.793 38.19C248.768 40.11 249.255 42.3225 249.255 44.8275C249.255 47.3625 248.76 49.5975 247.77 51.5325C246.795 53.4525 245.415 54.96 243.63 56.055C241.845 57.135 239.745 57.675 237.33 57.675ZM237.33 53.2425C239.655 53.2425 241.388 52.4625 242.528 50.9025C243.683 49.3275 244.26 47.3025 244.26 44.8275C244.26 42.2925 243.675 40.2675 242.505 38.7525C241.35 37.2225 239.625 36.4575 237.33 36.4575C235.755 36.4575 234.458 36.8175 233.438 37.5375C232.418 38.2425 231.66 39.225 231.165 40.485C230.67 41.73 230.423 43.1775 230.423 44.8275C230.423 47.3775 231.008 49.4175 232.178 50.9475C233.348 52.4775 235.065 53.2425 237.33 53.2425ZM265.945 57.675C263.62 57.675 261.52 57.2775 259.645 56.4825C257.785 55.6725 256.247 54.525 255.032 53.04C253.832 51.54 253.052 49.7625 252.692 47.7075L257.597 46.965C258.092 48.945 259.127 50.49 260.702 51.6C262.277 52.695 264.115 53.2425 266.215 53.2425C267.52 53.2425 268.72 53.04 269.815 52.635C270.91 52.215 271.787 51.6225 272.447 50.8575C273.122 50.0775 273.46 49.1475 273.46 48.0675C273.46 47.4825 273.355 46.965 273.145 46.515C272.95 46.065 272.672 45.675 272.312 45.345C271.967 45 271.54 44.7075 271.03 44.4675C270.535 44.2125 269.987 43.995 269.387 43.815L261.085 41.3625C260.275 41.1225 259.45 40.815 258.61 40.44C257.77 40.05 256.997 39.5475 256.292 38.9325C255.602 38.3025 255.04 37.53 254.605 36.615C254.17 35.685 253.952 34.56 253.952 33.24C253.952 31.245 254.462 29.5575 255.482 28.1775C256.517 26.7825 257.912 25.7325 259.667 25.0275C261.422 24.3075 263.387 23.9475 265.562 23.9475C267.752 23.9775 269.71 24.3675 271.435 25.1175C273.175 25.8675 274.615 26.9475 275.755 28.3575C276.91 29.7525 277.705 31.4475 278.14 33.4425L273.1 34.2975C272.875 33.0825 272.395 32.04 271.66 31.17C270.925 30.285 270.025 29.61 268.96 29.145C267.895 28.665 266.74 28.4175 265.495 28.4025C264.295 28.3725 263.192 28.5525 262.187 28.9425C261.197 29.3325 260.402 29.88 259.802 30.585C259.217 31.29 258.925 32.1 258.925 33.015C258.925 33.915 259.187 34.6425 259.712 35.1975C260.237 35.7525 260.882 36.195 261.647 36.525C262.427 36.84 263.2 37.1025 263.965 37.3125L269.95 39C270.7 39.21 271.547 39.495 272.492 39.855C273.452 40.2 274.375 40.6875 275.26 41.3175C276.16 41.9475 276.902 42.7875 277.487 43.8375C278.072 44.8725 278.365 46.1775 278.365 47.7525C278.365 49.3875 278.035 50.8275 277.375 52.0725C276.715 53.3025 275.807 54.3375 274.652 55.1775C273.512 56.0025 272.192 56.625 270.692 57.045C269.192 57.465 267.61 57.675 265.945 57.675ZM300.215 57V45.0525C300.215 44.1075 300.132 43.14 299.967 42.15C299.817 41.145 299.517 40.215 299.067 39.36C298.632 38.505 298.01 37.815 297.2 37.29C296.405 36.765 295.362 36.5025 294.072 36.5025C293.232 36.5025 292.437 36.645 291.687 36.93C290.937 37.2 290.277 37.6425 289.707 38.2575C289.152 38.8725 288.71 39.6825 288.38 40.6875C288.065 41.6925 287.907 42.915 287.907 44.355L284.982 43.2525C284.982 41.0475 285.395 39.105 286.22 37.425C287.045 35.73 288.23 34.41 289.775 33.465C291.32 32.52 293.187 32.0475 295.377 32.0475C297.057 32.0475 298.467 32.3175 299.607 32.8575C300.747 33.3975 301.67 34.11 302.375 34.995C303.095 35.865 303.642 36.8175 304.017 37.8525C304.392 38.8875 304.647 39.9 304.782 40.89C304.917 41.88 304.985 42.75 304.985 43.5V57H300.215ZM283.137 57V24.6H287.345V42.0825H287.907V57H283.137ZM321.398 57.675C318.968 57.675 316.86 57.1275 315.075 56.0325C313.29 54.9375 311.91 53.43 310.935 51.51C309.975 49.575 309.495 47.3475 309.495 44.8275C309.495 42.2925 309.99 40.065 310.98 38.145C311.97 36.21 313.358 34.71 315.143 33.645C316.928 32.565 319.013 32.025 321.398 32.025C323.828 32.025 325.935 32.5725 327.72 33.6675C329.505 34.7625 330.885 36.27 331.86 38.19C332.835 40.11 333.323 42.3225 333.323 44.8275C333.323 47.3625 332.828 49.5975 331.838 51.5325C330.863 53.4525 329.483 54.96 327.698 56.055C325.913 57.135 323.813 57.675 321.398 57.675ZM321.398 53.2425C323.723 53.2425 325.455 52.4625 326.595 50.9025C327.75 49.3275 328.328 47.3025 328.328 44.8275C328.328 42.2925 327.743 40.2675 326.573 38.7525C325.418 37.2225 323.693 36.4575 321.398 36.4575C319.823 36.4575 318.525 36.8175 317.505 37.5375C316.485 38.2425 315.728 39.225 315.233 40.485C314.738 41.73 314.49 43.1775 314.49 44.8275C314.49 47.3775 315.075 49.4175 316.245 50.9475C317.415 52.4775 319.133 53.2425 321.398 53.2425ZM342.563 57L335.138 32.6775L339.796 32.7L344.881 49.3725L350.011 32.7H354.061L359.191 49.3725L364.276 32.7H368.911L361.486 57H357.706L352.036 39.405L346.343 57H342.563ZM382.456 57.675C379.966 57.675 377.851 57.12 376.111 56.01C374.371 54.9 373.036 53.3775 372.106 51.4425C371.191 49.5075 370.726 47.31 370.711 44.85C370.726 42.345 371.206 40.1325 372.151 38.2125C373.096 36.2775 374.446 34.7625 376.201 33.6675C377.956 32.5725 380.064 32.025 382.524 32.025C385.179 32.025 387.444 32.685 389.319 34.005C391.209 35.325 392.454 37.1325 393.054 39.4275L388.374 40.7775C387.909 39.4125 387.144 38.355 386.079 37.605C385.029 36.84 383.821 36.4575 382.456 36.4575C380.911 36.4575 379.644 36.825 378.654 37.56C377.664 38.28 376.929 39.27 376.449 40.53C375.969 41.79 375.721 43.23 375.706 44.85C375.721 47.355 376.291 49.38 377.416 50.925C378.556 52.47 380.236 53.2425 382.456 53.2425C383.971 53.2425 385.194 52.8975 386.124 52.2075C387.069 51.5025 387.789 50.4975 388.284 49.1925L393.054 50.3175C392.259 52.6875 390.946 54.51 389.116 55.785C387.286 57.045 385.066 57.675 382.456 57.675ZM404.192 57.675C402.392 57.675 400.885 57.345 399.67 56.685C398.455 56.01 397.532 55.125 396.902 54.03C396.287 52.92 395.98 51.705 395.98 50.385C395.98 49.155 396.197 48.075 396.632 47.145C397.067 46.215 397.712 45.4275 398.567 44.7825C399.422 44.1225 400.472 43.59 401.717 43.185C402.797 42.87 404.02 42.5925 405.385 42.3525C406.75 42.1125 408.182 41.8875 409.682 41.6775C411.197 41.4675 412.697 41.2575 414.182 41.0475L412.472 41.9925C412.502 40.0875 412.097 38.6775 411.257 37.7625C410.432 36.8325 409.007 36.3675 406.982 36.3675C405.707 36.3675 404.537 36.6675 403.472 37.2675C402.407 37.8525 401.665 38.8275 401.245 40.1925L396.857 38.8425C397.457 36.7575 398.597 35.1 400.277 33.87C401.972 32.64 404.222 32.025 407.027 32.025C409.202 32.025 411.092 32.4 412.697 33.15C414.317 33.885 415.502 35.055 416.252 36.66C416.642 37.455 416.882 38.295 416.972 39.18C417.062 40.065 417.107 41.0175 417.107 42.0375V57H412.945V51.4425L413.755 52.1625C412.75 54.0225 411.467 55.41 409.907 56.325C408.362 57.225 406.457 57.675 404.192 57.675ZM405.025 53.8275C406.36 53.8275 407.507 53.595 408.467 53.13C409.427 52.65 410.2 52.0425 410.785 51.3075C411.37 50.5725 411.752 49.8075 411.932 49.0125C412.187 48.2925 412.33 47.4825 412.36 46.5825C412.405 45.6825 412.427 44.9625 412.427 44.4225L413.957 44.985C412.472 45.21 411.122 45.4125 409.907 45.5925C408.692 45.7725 407.59 45.9525 406.6 46.1325C405.625 46.2975 404.755 46.5 403.99 46.74C403.345 46.965 402.767 47.235 402.257 47.55C401.762 47.865 401.365 48.2475 401.065 48.6975C400.78 49.1475 400.637 49.695 400.637 50.34C400.637 50.97 400.795 51.555 401.11 52.095C401.425 52.62 401.905 53.04 402.55 53.355C403.195 53.67 404.02 53.8275 405.025 53.8275ZM432.242 57.6525C429.287 57.6525 426.88 57 425.02 55.695C423.16 54.39 422.02 52.5525 421.6 50.1825L426.415 49.44C426.715 50.7 427.405 51.6975 428.485 52.4325C429.58 53.1525 430.937 53.5125 432.557 53.5125C434.027 53.5125 435.175 53.2125 436 52.6125C436.84 52.0125 437.26 51.1875 437.26 50.1375C437.26 49.5225 437.11 49.0275 436.81 48.6525C436.525 48.2625 435.917 47.895 434.987 47.55C434.057 47.205 432.64 46.7775 430.735 46.2675C428.65 45.7275 426.992 45.15 425.762 44.535C424.547 43.905 423.677 43.1775 423.152 42.3525C422.642 41.5125 422.387 40.5 422.387 39.315C422.387 37.845 422.777 36.5625 423.557 35.4675C424.337 34.3725 425.432 33.525 426.842 32.925C428.267 32.325 429.932 32.025 431.837 32.025C433.697 32.025 435.355 32.3175 436.81 32.9025C438.265 33.4875 439.442 34.32 440.342 35.4C441.242 36.465 441.782 37.7175 441.962 39.1575L437.147 40.035C436.982 38.865 436.435 37.9425 435.505 37.2675C434.575 36.5925 433.367 36.225 431.882 36.165C430.457 36.105 429.302 36.345 428.417 36.885C427.532 37.41 427.09 38.1375 427.09 39.0675C427.09 39.6075 427.255 40.065 427.585 40.44C427.93 40.815 428.59 41.175 429.565 41.52C430.54 41.865 431.98 42.2775 433.885 42.7575C435.925 43.2825 437.545 43.8675 438.745 44.5125C439.945 45.1425 440.8 45.9 441.31 46.785C441.835 47.655 442.097 48.7125 442.097 49.9575C442.097 52.3575 441.22 54.24 439.465 55.605C437.725 56.97 435.317 57.6525 432.242 57.6525ZM457.853 57.675C455.438 57.675 453.316 57.15 451.486 56.1C449.671 55.035 448.253 53.5575 447.233 51.6675C446.228 49.7625 445.726 47.5575 445.726 45.0525C445.726 42.3975 446.221 40.095 447.211 38.145C448.216 36.195 449.611 34.6875 451.396 33.6225C453.181 32.5575 455.258 32.025 457.628 32.025C460.103 32.025 462.211 32.6025 463.951 33.7575C465.691 34.8975 466.988 36.525 467.843 38.64C468.713 40.755 469.058 43.2675 468.878 46.1775H464.176V44.4675C464.146 41.6475 463.606 39.5625 462.556 38.2125C461.521 36.8625 459.938 36.1875 457.808 36.1875C455.453 36.1875 453.683 36.93 452.498 38.415C451.313 39.9 450.721 42.045 450.721 44.85C450.721 47.52 451.313 49.59 452.498 51.06C453.683 52.515 455.393 53.2425 457.628 53.2425C459.098 53.2425 460.366 52.9125 461.431 52.2525C462.511 51.5775 463.351 50.6175 463.951 49.3725L468.563 50.835C467.618 53.01 466.186 54.6975 464.266 55.8975C462.346 57.0825 460.208 57.675 457.853 57.675ZM449.191 46.1775V42.51H466.538V46.1775H449.191Z"/>
</mask>
<path d="M143.15 57V24.6H147.403L159.148 48.9675L170.825 24.6H175.123V56.9775H170.668V34.815L160.205 57H158.068L147.583 34.815V57H143.15ZM191.979 57.675C189.549 57.675 187.441 57.1275 185.656 56.0325C183.871 54.9375 182.491 53.43 181.516 51.51C180.556 49.575 180.076 47.3475 180.076 44.8275C180.076 42.2925 180.571 40.065 181.561 38.145C182.551 36.21 183.939 34.71 185.724 33.645C187.509 32.565 189.594 32.025 191.979 32.025C194.409 32.025 196.516 32.5725 198.301 33.6675C200.086 34.7625 201.466 36.27 202.441 38.19C203.416 40.11 203.904 42.3225 203.904 44.8275C203.904 47.3625 203.409 49.5975 202.419 51.5325C201.444 53.4525 200.064 54.96 198.279 56.055C196.494 57.135 194.394 57.675 191.979 57.675ZM191.979 53.2425C194.304 53.2425 196.036 52.4625 197.176 50.9025C198.331 49.3275 198.909 47.3025 198.909 44.8275C198.909 42.2925 198.324 40.2675 197.154 38.7525C195.999 37.2225 194.274 36.4575 191.979 36.4575C190.404 36.4575 189.106 36.8175 188.086 37.5375C187.066 38.2425 186.309 39.225 185.814 40.485C185.319 41.73 185.071 43.1775 185.071 44.8275C185.071 47.3775 185.656 49.4175 186.826 50.9475C187.996 52.4775 189.714 53.2425 191.979 53.2425ZM222.753 57C221.223 57.3 219.723 57.4275 218.253 57.3825C216.783 57.3375 215.471 57.0525 214.316 56.5275C213.161 56.0025 212.291 55.1775 211.706 54.0525C211.181 53.0475 210.896 52.0275 210.851 50.9925C210.821 49.9425 210.806 48.7575 210.806 47.4375V25.95H215.531V47.2125C215.531 48.1875 215.538 49.035 215.553 49.755C215.583 50.475 215.741 51.0825 216.026 51.5775C216.566 52.5075 217.421 53.04 218.591 53.175C219.776 53.295 221.163 53.2425 222.753 53.0175V57ZM206.148 36.48V32.7H222.753V36.48H206.148ZM237.33 57.675C234.9 57.675 232.793 57.1275 231.008 56.0325C229.223 54.9375 227.843 53.43 226.868 51.51C225.908 49.575 225.428 47.3475 225.428 44.8275C225.428 42.2925 225.923 40.065 226.913 38.145C227.903 36.21 229.29 34.71 231.075 33.645C232.86 32.565 234.945 32.025 237.33 32.025C239.76 32.025 241.868 32.5725 243.653 33.6675C245.438 34.7625 246.818 36.27 247.793 38.19C248.768 40.11 249.255 42.3225 249.255 44.8275C249.255 47.3625 248.76 49.5975 247.77 51.5325C246.795 53.4525 245.415 54.96 243.63 56.055C241.845 57.135 239.745 57.675 237.33 57.675ZM237.33 53.2425C239.655 53.2425 241.388 52.4625 242.528 50.9025C243.683 49.3275 244.26 47.3025 244.26 44.8275C244.26 42.2925 243.675 40.2675 242.505 38.7525C241.35 37.2225 239.625 36.4575 237.33 36.4575C235.755 36.4575 234.458 36.8175 233.438 37.5375C232.418 38.2425 231.66 39.225 231.165 40.485C230.67 41.73 230.423 43.1775 230.423 44.8275C230.423 47.3775 231.008 49.4175 232.178 50.9475C233.348 52.4775 235.065 53.2425 237.33 53.2425ZM265.945 57.675C263.62 57.675 261.52 57.2775 259.645 56.4825C257.785 55.6725 256.247 54.525 255.032 53.04C253.832 51.54 253.052 49.7625 252.692 47.7075L257.597 46.965C258.092 48.945 259.127 50.49 260.702 51.6C262.277 52.695 264.115 53.2425 266.215 53.2425C267.52 53.2425 268.72 53.04 269.815 52.635C270.91 52.215 271.787 51.6225 272.447 50.8575C273.122 50.0775 273.46 49.1475 273.46 48.0675C273.46 47.4825 273.355 46.965 273.145 46.515C272.95 46.065 272.672 45.675 272.312 45.345C271.967 45 271.54 44.7075 271.03 44.4675C270.535 44.2125 269.987 43.995 269.387 43.815L261.085 41.3625C260.275 41.1225 259.45 40.815 258.61 40.44C257.77 40.05 256.997 39.5475 256.292 38.9325C255.602 38.3025 255.04 37.53 254.605 36.615C254.17 35.685 253.952 34.56 253.952 33.24C253.952 31.245 254.462 29.5575 255.482 28.1775C256.517 26.7825 257.912 25.7325 259.667 25.0275C261.422 24.3075 263.387 23.9475 265.562 23.9475C267.752 23.9775 269.71 24.3675 271.435 25.1175C273.175 25.8675 274.615 26.9475 275.755 28.3575C276.91 29.7525 277.705 31.4475 278.14 33.4425L273.1 34.2975C272.875 33.0825 272.395 32.04 271.66 31.17C270.925 30.285 270.025 29.61 268.96 29.145C267.895 28.665 266.74 28.4175 265.495 28.4025C264.295 28.3725 263.192 28.5525 262.187 28.9425C261.197 29.3325 260.402 29.88 259.802 30.585C259.217 31.29 258.925 32.1 258.925 33.015C258.925 33.915 259.187 34.6425 259.712 35.1975C260.237 35.7525 260.882 36.195 261.647 36.525C262.427 36.84 263.2 37.1025 263.965 37.3125L269.95 39C270.7 39.21 271.547 39.495 272.492 39.855C273.452 40.2 274.375 40.6875 275.26 41.3175C276.16 41.9475 276.902 42.7875 277.487 43.8375C278.072 44.8725 278.365 46.1775 278.365 47.7525C278.365 49.3875 278.035 50.8275 277.375 52.0725C276.715 53.3025 275.807 54.3375 274.652 55.1775C273.512 56.0025 272.192 56.625 270.692 57.045C269.192 57.465 267.61 57.675 265.945 57.675ZM300.215 57V45.0525C300.215 44.1075 300.132 43.14 299.967 42.15C299.817 41.145 299.517 40.215 299.067 39.36C298.632 38.505 298.01 37.815 297.2 37.29C296.405 36.765 295.362 36.5025 294.072 36.5025C293.232 36.5025 292.437 36.645 291.687 36.93C290.937 37.2 290.277 37.6425 289.707 38.2575C289.152 38.8725 288.71 39.6825 288.38 40.6875C288.065 41.6925 287.907 42.915 287.907 44.355L284.982 43.2525C284.982 41.0475 285.395 39.105 286.22 37.425C287.045 35.73 288.23 34.41 289.775 33.465C291.32 32.52 293.187 32.0475 295.377 32.0475C297.057 32.0475 298.467 32.3175 299.607 32.8575C300.747 33.3975 301.67 34.11 302.375 34.995C303.095 35.865 303.642 36.8175 304.017 37.8525C304.392 38.8875 304.647 39.9 304.782 40.89C304.917 41.88 304.985 42.75 304.985 43.5V57H300.215ZM283.137 57V24.6H287.345V42.0825H287.907V57H283.137ZM321.398 57.675C318.968 57.675 316.86 57.1275 315.075 56.0325C313.29 54.9375 311.91 53.43 310.935 51.51C309.975 49.575 309.495 47.3475 309.495 44.8275C309.495 42.2925 309.99 40.065 310.98 38.145C311.97 36.21 313.358 34.71 315.143 33.645C316.928 32.565 319.013 32.025 321.398 32.025C323.828 32.025 325.935 32.5725 327.72 33.6675C329.505 34.7625 330.885 36.27 331.86 38.19C332.835 40.11 333.323 42.3225 333.323 44.8275C333.323 47.3625 332.828 49.5975 331.838 51.5325C330.863 53.4525 329.483 54.96 327.698 56.055C325.913 57.135 323.813 57.675 321.398 57.675ZM321.398 53.2425C323.723 53.2425 325.455 52.4625 326.595 50.9025C327.75 49.3275 328.328 47.3025 328.328 44.8275C328.328 42.2925 327.743 40.2675 326.573 38.7525C325.418 37.2225 323.693 36.4575 321.398 36.4575C319.823 36.4575 318.525 36.8175 317.505 37.5375C316.485 38.2425 315.728 39.225 315.233 40.485C314.738 41.73 314.49 43.1775 314.49 44.8275C314.49 47.3775 315.075 49.4175 316.245 50.9475C317.415 52.4775 319.133 53.2425 321.398 53.2425ZM342.563 57L335.138 32.6775L339.796 32.7L344.881 49.3725L350.011 32.7H354.061L359.191 49.3725L364.276 32.7H368.911L361.486 57H357.706L352.036 39.405L346.343 57H342.563ZM382.456 57.675C379.966 57.675 377.851 57.12 376.111 56.01C374.371 54.9 373.036 53.3775 372.106 51.4425C371.191 49.5075 370.726 47.31 370.711 44.85C370.726 42.345 371.206 40.1325 372.151 38.2125C373.096 36.2775 374.446 34.7625 376.201 33.6675C377.956 32.5725 380.064 32.025 382.524 32.025C385.179 32.025 387.444 32.685 389.319 34.005C391.209 35.325 392.454 37.1325 393.054 39.4275L388.374 40.7775C387.909 39.4125 387.144 38.355 386.079 37.605C385.029 36.84 383.821 36.4575 382.456 36.4575C380.911 36.4575 379.644 36.825 378.654 37.56C377.664 38.28 376.929 39.27 376.449 40.53C375.969 41.79 375.721 43.23 375.706 44.85C375.721 47.355 376.291 49.38 377.416 50.925C378.556 52.47 380.236 53.2425 382.456 53.2425C383.971 53.2425 385.194 52.8975 386.124 52.2075C387.069 51.5025 387.789 50.4975 388.284 49.1925L393.054 50.3175C392.259 52.6875 390.946 54.51 389.116 55.785C387.286 57.045 385.066 57.675 382.456 57.675ZM404.192 57.675C402.392 57.675 400.885 57.345 399.67 56.685C398.455 56.01 397.532 55.125 396.902 54.03C396.287 52.92 395.98 51.705 395.98 50.385C395.98 49.155 396.197 48.075 396.632 47.145C397.067 46.215 397.712 45.4275 398.567 44.7825C399.422 44.1225 400.472 43.59 401.717 43.185C402.797 42.87 404.02 42.5925 405.385 42.3525C406.75 42.1125 408.182 41.8875 409.682 41.6775C411.197 41.4675 412.697 41.2575 414.182 41.0475L412.472 41.9925C412.502 40.0875 412.097 38.6775 411.257 37.7625C410.432 36.8325 409.007 36.3675 406.982 36.3675C405.707 36.3675 404.537 36.6675 403.472 37.2675C402.407 37.8525 401.665 38.8275 401.245 40.1925L396.857 38.8425C397.457 36.7575 398.597 35.1 400.277 33.87C401.972 32.64 404.222 32.025 407.027 32.025C409.202 32.025 411.092 32.4 412.697 33.15C414.317 33.885 415.502 35.055 416.252 36.66C416.642 37.455 416.882 38.295 416.972 39.18C417.062 40.065 417.107 41.0175 417.107 42.0375V57H412.945V51.4425L413.755 52.1625C412.75 54.0225 411.467 55.41 409.907 56.325C408.362 57.225 406.457 57.675 404.192 57.675ZM405.025 53.8275C406.36 53.8275 407.507 53.595 408.467 53.13C409.427 52.65 410.2 52.0425 410.785 51.3075C411.37 50.5725 411.752 49.8075 411.932 49.0125C412.187 48.2925 412.33 47.4825 412.36 46.5825C412.405 45.6825 412.427 44.9625 412.427 44.4225L413.957 44.985C412.472 45.21 411.122 45.4125 409.907 45.5925C408.692 45.7725 407.59 45.9525 406.6 46.1325C405.625 46.2975 404.755 46.5 403.99 46.74C403.345 46.965 402.767 47.235 402.257 47.55C401.762 47.865 401.365 48.2475 401.065 48.6975C400.78 49.1475 400.637 49.695 400.637 50.34C400.637 50.97 400.795 51.555 401.11 52.095C401.425 52.62 401.905 53.04 402.55 53.355C403.195 53.67 404.02 53.8275 405.025 53.8275ZM432.242 57.6525C429.287 57.6525 426.88 57 425.02 55.695C423.16 54.39 422.02 52.5525 421.6 50.1825L426.415 49.44C426.715 50.7 427.405 51.6975 428.485 52.4325C429.58 53.1525 430.937 53.5125 432.557 53.5125C434.027 53.5125 435.175 53.2125 436 52.6125C436.84 52.0125 437.26 51.1875 437.26 50.1375C437.26 49.5225 437.11 49.0275 436.81 48.6525C436.525 48.2625 435.917 47.895 434.987 47.55C434.057 47.205 432.64 46.7775 430.735 46.2675C428.65 45.7275 426.992 45.15 425.762 44.535C424.547 43.905 423.677 43.1775 423.152 42.3525C422.642 41.5125 422.387 40.5 422.387 39.315C422.387 37.845 422.777 36.5625 423.557 35.4675C424.337 34.3725 425.432 33.525 426.842 32.925C428.267 32.325 429.932 32.025 431.837 32.025C433.697 32.025 435.355 32.3175 436.81 32.9025C438.265 33.4875 439.442 34.32 440.342 35.4C441.242 36.465 441.782 37.7175 441.962 39.1575L437.147 40.035C436.982 38.865 436.435 37.9425 435.505 37.2675C434.575 36.5925 433.367 36.225 431.882 36.165C430.457 36.105 429.302 36.345 428.417 36.885C427.532 37.41 427.09 38.1375 427.09 39.0675C427.09 39.6075 427.255 40.065 427.585 40.44C427.93 40.815 428.59 41.175 429.565 41.52C430.54 41.865 431.98 42.2775 433.885 42.7575C435.925 43.2825 437.545 43.8675 438.745 44.5125C439.945 45.1425 440.8 45.9 441.31 46.785C441.835 47.655 442.097 48.7125 442.097 49.9575C442.097 52.3575 441.22 54.24 439.465 55.605C437.725 56.97 435.317 57.6525 432.242 57.6525ZM457.853 57.675C455.438 57.675 453.316 57.15 451.486 56.1C449.671 55.035 448.253 53.5575 447.233 51.6675C446.228 49.7625 445.726 47.5575 445.726 45.0525C445.726 42.3975 446.221 40.095 447.211 38.145C448.216 36.195 449.611 34.6875 451.396 33.6225C453.181 32.5575 455.258 32.025 457.628 32.025C460.103 32.025 462.211 32.6025 463.951 33.7575C465.691 34.8975 466.988 36.525 467.843 38.64C468.713 40.755 469.058 43.2675 468.878 46.1775H464.176V44.4675C464.146 41.6475 463.606 39.5625 462.556 38.2125C461.521 36.8625 459.938 36.1875 457.808 36.1875C455.453 36.1875 453.683 36.93 452.498 38.415C451.313 39.9 450.721 42.045 450.721 44.85C450.721 47.52 451.313 49.59 452.498 51.06C453.683 52.515 455.393 53.2425 457.628 53.2425C459.098 53.2425 460.366 52.9125 461.431 52.2525C462.511 51.5775 463.351 50.6175 463.951 49.3725L468.563 50.835C467.618 53.01 466.186 54.6975 464.266 55.8975C462.346 57.0825 460.208 57.675 457.853 57.675ZM449.191 46.1775V42.51H466.538V46.1775H449.191Z" fill="#111111"/>
<path d="M143.15 57H142.15V58H143.15V57ZM143.15 24.6V23.6H142.15V24.6H143.15ZM147.403 24.6L148.303 24.1658L148.031 23.6H147.403V24.6ZM159.148 48.9675L158.247 49.4017L159.15 51.276L160.049 49.3997L159.148 48.9675ZM170.825 24.6V23.6H170.195L169.923 24.1678L170.825 24.6ZM175.123 24.6H176.123V23.6H175.123V24.6ZM175.123 56.9775V57.9775H176.123V56.9775H175.123ZM170.668 56.9775H169.668V57.9775H170.668V56.9775ZM170.668 34.815H171.668L169.763 34.3885L170.668 34.815ZM160.205 57V58H160.839L161.109 57.4265L160.205 57ZM158.068 57L157.163 57.4273L157.434 58H158.068V57ZM147.583 34.815L148.487 34.3877L146.583 34.815H147.583ZM147.583 57V58H148.583V57H147.583ZM144.15 57V24.6H142.15V57H144.15ZM143.15 25.6H147.403V23.6H143.15V25.6ZM146.502 25.0342L158.247 49.4017L160.048 48.5333L148.303 24.1658L146.502 25.0342ZM160.049 49.3997L171.727 25.0322L169.923 24.1678L158.246 48.5353L160.049 49.3997ZM170.825 25.6H175.123V23.6H170.825V25.6ZM174.123 24.6V56.9775H176.123V24.6H174.123ZM175.123 55.9775H170.668V57.9775H175.123V55.9775ZM171.668 56.9775V34.815H169.668V56.9775H171.668ZM169.763 34.3885L159.301 56.5735L161.109 57.4265L171.572 35.2415L169.763 34.3885ZM160.205 56H158.068V58H160.205V56ZM158.972 56.5727L148.487 34.3877L146.678 35.2423L157.163 57.4273L158.972 56.5727ZM146.583 34.815V57H148.583V34.815H146.583ZM147.583 56H143.15V58H147.583V56ZM185.656 56.0325L185.133 56.8849L185.133 56.8849L185.656 56.0325ZM181.516 51.51L180.621 51.9545L180.625 51.9628L181.516 51.51ZM181.561 38.145L182.45 38.6033L182.452 38.6005L181.561 38.145ZM185.724 33.645L186.236 34.5038L186.242 34.5006L185.724 33.645ZM198.301 33.6675L198.824 32.8151L198.824 32.8151L198.301 33.6675ZM202.441 38.19L201.55 38.6428L201.55 38.6428L202.441 38.19ZM202.419 51.5325L201.529 51.077L201.527 51.0797L202.419 51.5325ZM198.279 56.055L198.797 56.9106L198.802 56.9074L198.279 56.055ZM197.176 50.9025L196.37 50.3111L196.369 50.3125L197.176 50.9025ZM197.154 38.7525L196.356 39.355L196.362 39.3637L197.154 38.7525ZM188.086 37.5375L188.655 38.3602L188.663 38.3545L188.086 37.5375ZM185.814 40.485L186.743 40.8545L186.745 40.8507L185.814 40.485ZM186.826 50.9475L187.621 50.34L187.621 50.34L186.826 50.9475ZM191.979 56.675C189.703 56.675 187.783 56.164 186.179 55.1801L185.133 56.8849C187.1 58.091 189.394 58.675 191.979 58.675V56.675ZM186.179 55.1801C184.556 54.1845 183.302 52.8174 182.408 51.0572L180.625 51.9628C181.681 54.0426 183.186 55.6905 185.133 56.8849L186.179 55.1801ZM182.412 51.0656C181.531 49.29 181.076 47.2189 181.076 44.8275H179.076C179.076 47.4761 179.581 49.86 180.621 51.9544L182.412 51.0656ZM181.076 44.8275C181.076 42.4243 181.545 40.3589 182.45 38.6033L180.673 37.6867C179.598 39.7711 179.076 42.1607 179.076 44.8275H181.076ZM182.452 38.6005C183.36 36.8247 184.62 35.468 186.236 34.5038L185.211 32.7862C183.258 33.952 181.743 35.5953 180.671 37.6895L182.452 38.6005ZM186.242 34.5006C187.849 33.528 189.75 33.025 191.979 33.025V31.025C189.438 31.025 187.169 31.602 185.206 32.7894L186.242 34.5006ZM191.979 33.025C194.254 33.025 196.175 33.536 197.778 34.5199L198.824 32.8151C196.858 31.609 194.563 31.025 191.979 31.025V33.025ZM197.778 34.5199C199.401 35.5155 200.656 36.8826 201.55 38.6428L203.333 37.7372C202.277 35.6574 200.771 34.0095 198.824 32.8151L197.778 34.5199ZM201.55 38.6428C202.443 40.4012 202.904 42.4541 202.904 44.8275H204.904C204.904 42.1909 204.39 39.8188 203.333 37.7372L201.55 38.6428ZM202.904 44.8275C202.904 47.2305 202.435 49.3047 201.529 51.077L203.309 51.988C204.382 49.8903 204.904 47.4945 204.904 44.8275H202.904ZM201.527 51.0797C200.633 52.8399 199.379 54.207 197.756 55.2026L198.802 56.9074C200.749 55.713 202.254 54.0651 203.31 51.9853L201.527 51.0797ZM197.761 55.1994C196.156 56.1709 194.241 56.675 191.979 56.675V58.675C194.547 58.675 196.832 58.0991 198.797 56.9106L197.761 55.1994ZM191.979 54.2425C194.55 54.2425 196.616 53.3641 197.984 51.4925L196.369 50.3125C195.457 51.5609 194.058 52.2425 191.979 52.2425V54.2425ZM197.983 51.4939C199.294 49.7063 199.909 47.4579 199.909 44.8275H197.909C197.909 47.1471 197.369 48.9487 196.37 50.3111L197.983 51.4939ZM199.909 44.8275C199.909 42.143 199.289 39.8807 197.945 38.1413L196.362 39.3637C197.359 40.6543 197.909 42.442 197.909 44.8275H199.909ZM197.952 38.15C196.57 36.319 194.518 35.4575 191.979 35.4575V37.4575C194.03 37.4575 195.428 38.126 196.356 39.355L197.952 38.15ZM191.979 35.4575C190.252 35.4575 188.738 35.8536 187.51 36.7205L188.663 38.3545C189.475 37.7814 190.556 37.4575 191.979 37.4575V35.4575ZM187.518 36.7149C186.319 37.5432 185.444 38.6922 184.883 40.1193L186.745 40.8507C187.174 39.7578 187.813 38.9418 188.655 38.3601L187.518 36.7149ZM184.885 40.1155C184.333 41.5019 184.071 43.0793 184.071 44.8275H186.071C186.071 43.2757 186.304 41.9581 186.743 40.8545L184.885 40.1155ZM184.071 44.8275C184.071 47.5261 184.691 49.8015 186.032 51.5549L187.621 50.34C186.622 49.0335 186.071 47.2289 186.071 44.8275H184.071ZM186.032 51.5549C187.426 53.3776 189.464 54.2425 191.979 54.2425V52.2425C189.964 52.2425 188.567 51.5774 187.621 50.34L186.032 51.5549ZM222.753 57L222.946 57.9813L223.753 57.823V57H222.753ZM218.253 57.3825L218.284 56.383L218.253 57.3825ZM214.316 56.5275L214.73 55.6171L214.316 56.5275ZM211.706 54.0525L212.593 53.5911L212.592 53.5895L211.706 54.0525ZM210.851 50.9925L209.851 51.0211L209.851 51.0285L209.852 51.0359L210.851 50.9925ZM210.806 25.95V24.95H209.806V25.95H210.806ZM215.531 25.95H216.531V24.95H215.531V25.95ZM215.553 49.755L214.553 49.7758L214.554 49.7862L214.554 49.7966L215.553 49.755ZM216.026 51.5775L215.159 52.0765L215.161 52.0796L216.026 51.5775ZM218.591 53.175L218.476 54.1685L218.49 54.1699L218.591 53.175ZM222.753 53.0175H223.753V51.866L222.613 52.0274L222.753 53.0175ZM206.148 36.48H205.148V37.48H206.148V36.48ZM206.148 32.7V31.7H205.148V32.7H206.148ZM222.753 32.7H223.753V31.7H222.753V32.7ZM222.753 36.48V37.48H223.753V36.48H222.753ZM222.561 56.0187C221.1 56.3052 219.675 56.4255 218.284 56.383L218.223 58.382C219.772 58.4295 221.347 58.2948 222.946 57.9813L222.561 56.0187ZM218.284 56.383C216.925 56.3414 215.746 56.0793 214.73 55.6171L213.902 57.4379C215.195 58.0257 216.641 58.3336 218.223 58.382L218.284 56.383ZM214.73 55.6171C213.778 55.1846 213.075 54.5176 212.593 53.5911L210.819 54.5139C211.507 55.8374 212.543 56.8204 213.902 57.4379L214.73 55.6171ZM212.592 53.5895C212.128 52.702 211.888 51.8242 211.85 50.9491L209.852 51.0359C209.904 52.2308 210.233 53.393 210.819 54.5155L212.592 53.5895ZM211.85 50.9639C211.821 49.9255 211.806 48.7503 211.806 47.4375H209.806C209.806 48.7647 209.821 49.9595 209.851 51.0211L211.85 50.9639ZM211.806 47.4375V25.95H209.806V47.4375H211.806ZM210.806 26.95H215.531V24.95H210.806V26.95ZM214.531 25.95V47.2125H216.531V25.95H214.531ZM214.531 47.2125C214.531 48.1922 214.538 49.047 214.553 49.7758L216.553 49.7342C216.538 49.023 216.531 48.1828 216.531 47.2125H214.531ZM214.554 49.7966C214.589 50.6364 214.775 51.4101 215.159 52.0765L216.892 51.0785C216.706 50.7549 216.577 50.3136 216.552 49.7134L214.554 49.7966ZM215.161 52.0796C215.876 53.3113 217.027 54.0012 218.476 54.1684L218.705 52.1816C217.814 52.0788 217.255 51.7037 216.891 51.0754L215.161 52.0796ZM218.49 54.1699C219.777 54.3003 221.249 54.2403 222.893 54.0076L222.613 52.0274C221.077 52.2447 219.774 52.2897 218.691 52.1801L218.49 54.1699ZM221.753 53.0175V57H223.753V53.0175H221.753ZM207.148 36.48V32.7H205.148V36.48H207.148ZM206.148 33.7H222.753V31.7H206.148V33.7ZM221.753 32.7V36.48H223.753V32.7H221.753ZM222.753 35.48H206.148V37.48H222.753V35.48ZM231.008 56.0325L230.485 56.8849L230.485 56.8849L231.008 56.0325ZM226.868 51.51L225.972 51.9545L225.976 51.9628L226.868 51.51ZM226.913 38.145L227.802 38.6033L227.803 38.6005L226.913 38.145ZM231.075 33.645L231.588 34.5038L231.593 34.5006L231.075 33.645ZM243.653 33.6675L244.176 32.8151L244.176 32.8151L243.653 33.6675ZM247.793 38.19L246.901 38.6428L246.901 38.6428L247.793 38.19ZM247.77 51.5325L246.88 51.077L246.879 51.0797L247.77 51.5325ZM243.63 56.055L244.148 56.9106L244.153 56.9074L243.63 56.055ZM242.528 50.9025L241.722 50.3111L241.721 50.3125L242.528 50.9025ZM242.505 38.7525L241.707 39.355L241.714 39.3637L242.505 38.7525ZM233.438 37.5375L234.007 38.3602L234.015 38.3545L233.438 37.5375ZM231.165 40.485L232.095 40.8545L232.096 40.8507L231.165 40.485ZM232.178 50.9475L232.972 50.34L232.972 50.34L232.178 50.9475ZM237.33 56.675C235.055 56.675 233.135 56.164 231.531 55.1801L230.485 56.8849C232.451 58.091 234.746 58.675 237.33 58.675V56.675ZM231.531 55.1801C229.908 54.1845 228.653 52.8174 227.76 51.0572L225.976 51.9628C227.032 54.0426 228.538 55.6905 230.485 56.8849L231.531 55.1801ZM227.764 51.0656C226.883 49.29 226.428 47.2189 226.428 44.8275H224.428C224.428 47.4761 224.933 49.86 225.972 51.9544L227.764 51.0656ZM226.428 44.8275C226.428 42.4243 226.896 40.3589 227.802 38.6033L226.024 37.6867C224.949 39.7711 224.428 42.1607 224.428 44.8275H226.428ZM227.803 38.6005C228.712 36.8247 229.972 35.468 231.588 34.5038L230.563 32.7862C228.609 33.952 227.094 35.5953 226.023 37.6895L227.803 38.6005ZM231.593 34.5006C233.201 33.528 235.101 33.025 237.33 33.025V31.025C234.79 31.025 232.52 31.602 230.558 32.7894L231.593 34.5006ZM237.33 33.025C239.606 33.025 241.526 33.536 243.13 34.5199L244.176 32.8151C242.21 31.609 239.915 31.025 237.33 31.025V33.025ZM243.13 34.5199C244.753 35.5155 246.007 36.8826 246.901 38.6428L248.685 37.7372C247.628 35.6574 246.123 34.0095 244.176 32.8151L243.13 34.5199ZM246.901 38.6428C247.794 40.4012 248.255 42.4541 248.255 44.8275H250.255C250.255 42.1909 249.742 39.8188 248.685 37.7372L246.901 38.6428ZM248.255 44.8275C248.255 47.2305 247.787 49.3047 246.88 51.077L248.661 51.988C249.734 49.8903 250.255 47.4945 250.255 44.8275H248.255ZM246.879 51.0797C245.985 52.8399 244.73 54.207 243.108 55.2026L244.153 56.9074C246.1 55.713 247.606 54.0651 248.662 51.9853L246.879 51.0797ZM243.113 55.1994C241.507 56.1709 239.592 56.675 237.33 56.675V58.675C239.899 58.675 242.184 58.0991 244.148 56.9106L243.113 55.1994ZM237.33 54.2425C239.901 54.2425 241.968 53.3641 243.335 51.4925L241.721 50.3125C240.808 51.5609 239.41 52.2425 237.33 52.2425V54.2425ZM243.334 51.4939C244.645 49.7063 245.26 47.4579 245.26 44.8275H243.26C243.26 47.1471 242.721 48.9487 241.722 50.3111L243.334 51.4939ZM245.26 44.8275C245.26 42.143 244.64 39.8807 243.297 38.1413L241.714 39.3637C242.711 40.6543 243.26 42.442 243.26 44.8275H245.26ZM243.304 38.15C241.921 36.319 239.87 35.4575 237.33 35.4575V37.4575C239.381 37.4575 240.78 38.126 241.707 39.355L243.304 38.15ZM237.33 35.4575C235.603 35.4575 234.089 35.8536 232.861 36.7205L234.015 38.3545C234.826 37.7814 235.908 37.4575 237.33 37.4575V35.4575ZM232.869 36.7149C231.671 37.5432 230.795 38.6922 230.235 40.1193L232.096 40.8507C232.525 39.7578 233.165 38.9418 234.007 38.3601L232.869 36.7149ZM230.236 40.1155C229.685 41.5019 229.423 43.0793 229.423 44.8275H231.423C231.423 43.2757 231.656 41.9581 232.095 40.8545L230.236 40.1155ZM229.423 44.8275C229.423 47.5261 230.043 49.8015 231.384 51.5549L232.972 50.34C231.973 49.0335 231.423 47.2289 231.423 44.8275H229.423ZM231.384 51.5549C232.777 53.3776 234.816 54.2425 237.33 54.2425V52.2425C235.315 52.2425 233.918 51.5774 232.972 50.34L231.384 51.5549ZM259.645 56.4825L259.246 57.3994L259.254 57.4032L259.645 56.4825ZM255.032 53.04L254.251 53.6647L254.258 53.6732L255.032 53.04ZM252.692 47.7075L252.543 46.7188L251.531 46.8719L251.707 47.8801L252.692 47.7075ZM257.597 46.965L258.567 46.7225L258.347 45.8401L257.448 45.9763L257.597 46.965ZM260.702 51.6L260.126 52.4174L260.131 52.4211L260.702 51.6ZM269.815 52.635L270.162 53.573L270.173 53.5687L269.815 52.635ZM272.447 50.8575L271.691 50.2031L271.69 50.2043L272.447 50.8575ZM273.145 46.515L272.227 46.9126L272.233 46.9253L272.239 46.9379L273.145 46.515ZM272.312 45.345L271.605 46.0521L271.621 46.0675L271.637 46.0822L272.312 45.345ZM271.03 44.4675L270.572 45.3565L270.588 45.3647L270.604 45.3723L271.03 44.4675ZM269.387 43.815L269.675 42.8572L269.671 42.856L269.387 43.815ZM261.085 41.3625L260.801 42.3213L260.802 42.3215L261.085 41.3625ZM258.61 40.44L258.189 41.347L258.195 41.3501L258.202 41.3531L258.61 40.44ZM256.292 38.9325L255.618 39.671L255.626 39.6786L255.635 39.6861L256.292 38.9325ZM254.605 36.615L253.699 37.0387L253.702 37.0444L254.605 36.615ZM255.482 28.1775L254.679 27.5817L254.678 27.5831L255.482 28.1775ZM259.667 25.0275L260.04 25.9555L260.047 25.9527L259.667 25.0275ZM265.562 23.9475L265.576 22.9475H265.562V23.9475ZM271.435 25.1175L271.036 26.0346L271.039 26.0358L271.435 25.1175ZM275.755 28.3575L274.977 28.9863L274.985 28.9952L275.755 28.3575ZM278.14 33.4425L278.307 34.4284L279.34 34.2532L279.117 33.2295L278.14 33.4425ZM273.1 34.2975L272.117 34.4796L272.296 35.4482L273.267 35.2834L273.1 34.2975ZM271.66 31.17L270.89 31.8089L270.896 31.8154L271.66 31.17ZM268.96 29.145L268.549 30.0567L268.56 30.0615L268.96 29.145ZM265.495 28.4025L265.47 29.4023L265.483 29.4024L265.495 28.4025ZM262.187 28.9425L261.826 28.0102L261.821 28.0121L262.187 28.9425ZM259.802 30.585L259.041 29.9368L259.033 29.9464L259.802 30.585ZM261.647 36.525L261.251 37.4432L261.262 37.4479L261.273 37.4522L261.647 36.525ZM263.965 37.3125L264.236 36.35L264.23 36.3482L263.965 37.3125ZM269.95 39L269.678 39.9625L269.68 39.963L269.95 39ZM272.492 39.855L272.136 40.7895L272.145 40.7929L272.154 40.7961L272.492 39.855ZM275.26 41.3175L274.68 42.1322L274.686 42.1367L275.26 41.3175ZM277.487 43.8375L276.614 44.3242L276.617 44.3296L277.487 43.8375ZM277.375 52.0725L278.256 52.5453L278.258 52.5409L277.375 52.0725ZM274.652 55.1775L275.239 55.9876L275.24 55.9862L274.652 55.1775ZM270.692 57.045L270.423 56.082L270.423 56.082L270.692 57.045ZM265.945 56.675C263.735 56.675 261.77 56.2976 260.035 55.5618L259.254 57.4032C261.269 58.2574 263.505 58.675 265.945 58.675V56.675ZM260.044 55.5657C258.321 54.8154 256.915 53.7618 255.806 52.4068L254.258 53.6732C255.58 55.2882 257.248 56.5296 259.246 57.3993L260.044 55.5657ZM255.813 52.4153C254.727 51.0576 254.011 49.4391 253.677 47.5349L251.707 47.8801C252.094 50.0859 252.938 52.0224 254.251 53.6647L255.813 52.4153ZM252.842 48.6962L257.747 47.9537L257.448 45.9763L252.543 46.7188L252.842 48.6962ZM256.627 47.2075C257.177 49.4052 258.343 51.1606 260.126 52.4174L261.278 50.7826C259.912 49.8194 259.008 48.4848 258.567 46.7225L256.627 47.2075ZM260.131 52.4211C261.89 53.6436 263.931 54.2425 266.215 54.2425V52.2425C264.299 52.2425 262.665 51.7464 261.273 50.7789L260.131 52.4211ZM266.215 54.2425C267.624 54.2425 268.943 54.0235 270.162 53.5729L269.468 51.6971C268.496 52.0565 267.415 52.2425 266.215 52.2425V54.2425ZM270.173 53.5687C271.397 53.0991 272.42 52.4195 273.204 51.5107L271.69 50.2043C271.154 50.8255 270.422 51.3309 269.457 51.7013L270.173 53.5687ZM273.203 51.5119C274.044 50.541 274.46 49.3755 274.46 48.0675H272.46C272.46 48.9195 272.201 49.614 271.691 50.2031L273.203 51.5119ZM274.46 48.0675C274.46 47.3622 274.333 46.6961 274.051 46.0921L272.239 46.9379C272.377 47.2339 272.46 47.6028 272.46 48.0675H274.46ZM274.062 46.1174C273.812 45.539 273.452 45.0332 272.988 44.6078L271.637 46.0822C271.893 46.3168 272.088 46.591 272.227 46.9126L274.062 46.1174ZM273.019 44.6379C272.581 44.1996 272.054 43.8443 271.456 43.5627L270.604 45.3723C271.025 45.5707 271.353 45.8004 271.605 46.0521L273.019 44.6379ZM271.488 43.5785C270.932 43.2921 270.326 43.0527 269.675 42.8572L269.1 44.7728C269.648 44.9373 270.138 45.1329 270.572 45.3565L271.488 43.5785ZM269.671 42.856L261.368 40.4035L260.802 42.3215L269.104 44.774L269.671 42.856ZM261.369 40.4037C260.605 40.1772 259.821 39.8855 259.017 39.5269L258.202 41.3531C259.079 41.7445 259.945 42.0678 260.801 42.3213L261.369 40.4037ZM259.031 39.533C258.277 39.1831 257.584 38.7325 256.95 38.1789L255.635 39.6861C256.41 40.3625 257.262 40.9169 258.189 41.347L259.031 39.533ZM256.967 38.194C256.38 37.6584 255.892 36.9937 255.508 36.1856L253.702 37.0444C254.188 38.0663 254.825 38.9466 255.618 39.671L256.967 38.194ZM255.511 36.1913C255.153 35.4262 254.952 34.4539 254.952 33.24H252.952C252.952 34.6661 253.187 35.9438 253.699 37.0387L255.511 36.1913ZM254.952 33.24C254.952 31.4229 255.414 29.9529 256.286 28.7719L254.678 27.5831C253.511 29.1621 252.952 31.0671 252.952 33.24H254.952ZM256.285 28.7733C257.201 27.5397 258.441 26.5979 260.04 25.9554L259.295 24.0996C257.384 24.8671 255.834 26.0253 254.679 27.5817L256.285 28.7733ZM260.047 25.9527C261.665 25.2888 263.499 24.9475 265.562 24.9475V22.9475C263.276 22.9475 261.18 23.3262 259.288 24.1023L260.047 25.9527ZM265.549 24.9474C267.628 24.9759 269.451 25.3454 271.036 26.0346L271.834 24.2004C269.969 23.3896 267.877 22.9791 265.576 22.9476L265.549 24.9474ZM271.039 26.0358C272.637 26.7246 273.944 27.708 274.977 28.9862L276.532 27.7288C275.286 26.187 273.713 25.0104 271.831 24.1992L271.039 26.0358ZM274.985 28.9952C276.025 30.2523 276.757 31.7965 277.163 33.6555L279.117 33.2295C278.652 31.0985 277.794 29.2527 276.525 27.7198L274.985 28.9952ZM277.973 32.4566L272.933 33.3116L273.267 35.2834L278.307 34.4284L277.973 32.4566ZM274.083 34.1154C273.829 32.7445 273.28 31.5385 272.424 30.5246L270.896 31.8154C271.509 32.5415 271.92 33.4205 272.117 34.4796L274.083 34.1154ZM272.429 30.5311C271.593 29.5248 270.566 28.7553 269.36 28.2285L268.56 30.0615C269.483 30.4647 270.256 31.0452 270.891 31.8089L272.429 30.5311ZM269.371 28.2333C268.172 27.6931 266.88 27.4191 265.507 27.4026L265.483 29.4024C266.599 29.4159 267.617 29.6369 268.549 30.0567L269.371 28.2333ZM265.52 27.4028C264.203 27.3699 262.967 27.5673 261.826 28.0102L262.549 29.8748C263.418 29.5377 264.387 29.3751 265.47 29.4022L265.52 27.4028ZM261.821 28.0121C260.701 28.4532 259.762 29.0892 259.041 29.9369L260.564 31.2331C261.042 30.6708 261.694 30.2118 262.554 29.8729L261.821 28.0121ZM259.033 29.9464C258.299 30.8307 257.925 31.8665 257.925 33.015H259.925C259.925 32.3335 260.136 31.7493 260.572 31.2236L259.033 29.9464ZM257.925 33.015C257.925 34.122 258.254 35.1115 258.986 35.8847L260.439 34.5103C260.12 34.1735 259.925 33.708 259.925 33.015H257.925ZM258.986 35.8847C259.612 36.547 260.373 37.0643 261.251 37.4432L262.043 35.6068C261.392 35.3257 260.862 34.958 260.439 34.5103L258.986 35.8847ZM261.273 37.4522C262.087 37.7808 262.896 38.056 263.7 38.2768L264.23 36.3482C263.504 36.149 262.768 35.8991 262.022 35.5978L261.273 37.4522ZM263.693 38.275L269.678 39.9625L270.221 38.0375L264.236 36.35L263.693 38.275ZM269.68 39.963C270.394 40.1628 271.212 40.4373 272.136 40.7895L272.848 38.9205C271.883 38.5527 271.006 38.2572 270.219 38.037L269.68 39.963ZM272.154 40.7961C273.023 41.1082 273.864 41.5517 274.68 42.1322L275.84 40.5028C274.885 39.8233 273.882 39.2918 272.831 38.9139L272.154 40.7961ZM274.686 42.1367C275.451 42.6721 276.095 43.3937 276.614 44.3242L278.361 43.3508C277.709 42.1813 276.868 41.2229 275.833 40.4983L274.686 42.1367ZM276.617 44.3296C277.094 45.1734 277.365 46.2958 277.365 47.7525H279.365C279.365 46.0592 279.051 44.5716 278.358 43.3454L276.617 44.3296ZM277.365 47.7525C277.365 49.2505 277.063 50.525 276.491 51.6041L278.258 52.5409C279.006 51.13 279.365 49.5245 279.365 47.7525H277.365ZM276.494 51.5997C275.906 52.694 275.1 53.6152 274.064 54.3688L275.24 55.9862C276.514 55.0598 277.523 53.911 278.256 52.5453L276.494 51.5997ZM274.066 54.3674C273.031 55.1161 271.821 55.6905 270.423 56.082L270.962 58.008C272.564 57.5595 273.993 56.8889 275.239 55.9876L274.066 54.3674ZM270.423 56.082C269.016 56.4758 267.525 56.675 265.945 56.675V58.675C267.695 58.675 269.368 58.4542 270.962 58.008L270.423 56.082ZM300.215 57H299.215V58H300.215V57ZM299.967 42.15L298.978 42.2976L298.979 42.306L298.981 42.3144L299.967 42.15ZM299.067 39.36L298.176 39.8135L298.182 39.8257L299.067 39.36ZM297.2 37.29L296.649 38.1245L296.656 38.1292L297.2 37.29ZM291.687 36.93L292.026 37.8709L292.034 37.8679L292.042 37.8648L291.687 36.93ZM289.707 38.2575L288.974 37.5777L288.965 37.5875L289.707 38.2575ZM288.38 40.6875L287.43 40.3755L287.426 40.3884L288.38 40.6875ZM287.907 44.355L287.555 45.2907L288.907 45.8006V44.355H287.907ZM284.982 43.2525H283.982V43.9443L284.63 44.1882L284.982 43.2525ZM286.22 37.425L287.117 37.8658L287.119 37.8626L286.22 37.425ZM289.775 33.465L290.297 34.3181L290.297 34.3181L289.775 33.465ZM299.607 32.8575L300.035 31.9538L300.035 31.9538L299.607 32.8575ZM302.375 34.995L301.593 35.6181L301.598 35.6254L301.604 35.6326L302.375 34.995ZM304.017 37.8525L303.077 38.1931L303.077 38.1931L304.017 37.8525ZM304.782 40.89L305.773 40.7549L305.773 40.7549L304.782 40.89ZM304.985 57V58H305.985V57H304.985ZM283.137 57H282.137V58H283.137V57ZM283.137 24.6V23.6H282.137V24.6H283.137ZM287.345 24.6H288.345V23.6H287.345V24.6ZM287.345 42.0825H286.345V43.0825H287.345V42.0825ZM287.907 42.0825H288.907V41.0825H287.907V42.0825ZM287.907 57V58H288.907V57H287.907ZM301.215 57V45.0525H299.215V57H301.215ZM301.215 45.0525C301.215 44.0491 301.127 43.0266 300.954 41.9856L298.981 42.3144C299.137 43.2534 299.215 44.1659 299.215 45.0525H301.215ZM300.956 42.0024C300.791 40.892 300.457 39.8537 299.952 38.8943L298.182 39.8257C298.577 40.5763 298.844 41.398 298.978 42.2976L300.956 42.0024ZM299.959 38.9065C299.443 37.8936 298.7 37.071 297.744 36.4508L296.656 38.1292C297.319 38.559 297.821 39.1164 298.176 39.8135L299.959 38.9065ZM297.751 36.4555C296.744 35.7905 295.491 35.5025 294.072 35.5025V37.5025C295.234 37.5025 296.066 37.7395 296.649 38.1245L297.751 36.4555ZM294.072 35.5025C293.117 35.5025 292.201 35.6651 291.332 35.9952L292.042 37.8648C292.674 37.6249 293.348 37.5025 294.072 37.5025V35.5025ZM291.349 35.9891C290.44 36.3161 289.647 36.8516 288.974 37.5777L290.441 38.9373C290.908 38.4334 291.434 38.0839 292.026 37.8709L291.349 35.9891ZM288.965 37.5875C288.294 38.3305 287.792 39.2733 287.43 40.3755L289.33 40.9995C289.628 40.0917 290.01 39.4145 290.45 38.9275L288.965 37.5875ZM287.426 40.3884C287.071 41.5184 286.907 42.8481 286.907 44.355H288.907C288.907 42.9819 289.058 41.8666 289.334 40.9866L287.426 40.3884ZM288.26 43.4193L285.335 42.3168L284.63 44.1882L287.555 45.2907L288.26 43.4193ZM285.982 43.2525C285.982 41.1733 286.371 39.3862 287.117 37.8658L285.322 36.9842C284.419 38.8238 283.982 40.9217 283.982 43.2525H285.982ZM287.119 37.8626C287.864 36.3319 288.921 35.1593 290.297 34.3181L289.253 32.6119C287.538 33.6607 286.226 35.1281 285.321 36.9874L287.119 37.8626ZM290.297 34.3181C291.654 33.4875 293.333 33.0475 295.377 33.0475V31.0475C293.042 31.0475 290.985 31.5525 289.253 32.6119L290.297 34.3181ZM295.377 33.0475C296.956 33.0475 298.21 33.302 299.179 33.7612L300.035 31.9538C298.725 31.333 297.159 31.0475 295.377 31.0475V33.0475ZM299.179 33.7612C300.197 34.2435 300.993 34.8655 301.593 35.6181L303.157 34.3719C302.346 33.3545 301.297 32.5515 300.035 31.9538L299.179 33.7612ZM301.604 35.6326C302.253 36.4164 302.742 37.2689 303.077 38.1931L304.957 37.5119C304.542 36.3661 303.936 35.3136 303.145 34.3574L301.604 35.6326ZM303.077 38.1931C303.43 39.1683 303.667 40.1119 303.791 41.0251L305.773 40.7549C305.628 39.6881 305.354 38.6067 304.957 37.5119L303.077 38.1931ZM303.791 41.0251C303.922 41.984 303.985 42.8072 303.985 43.5H305.985C305.985 42.6928 305.912 41.776 305.773 40.7549L303.791 41.0251ZM303.985 43.5V57H305.985V43.5H303.985ZM304.985 56H300.215V58H304.985V56ZM284.137 57V24.6H282.137V57H284.137ZM283.137 25.6H287.345V23.6H283.137V25.6ZM286.345 24.6V42.0825H288.345V24.6H286.345ZM287.345 43.0825H287.907V41.0825H287.345V43.0825ZM286.907 42.0825V57H288.907V42.0825H286.907ZM287.907 56H283.137V58H287.907V56ZM315.075 56.0325L314.552 56.8849L314.552 56.8849L315.075 56.0325ZM310.935 51.51L310.039 51.9545L310.044 51.9628L310.935 51.51ZM310.98 38.145L311.869 38.6033L311.871 38.6005L310.98 38.145ZM315.143 33.645L315.655 34.5038L315.66 34.5006L315.143 33.645ZM327.72 33.6675L328.243 32.8151L328.243 32.8151L327.72 33.6675ZM331.86 38.19L330.969 38.6428L330.969 38.6428L331.86 38.19ZM331.838 51.5325L330.948 51.077L330.946 51.0797L331.838 51.5325ZM327.698 56.055L328.215 56.9106L328.221 56.9074L327.698 56.055ZM326.595 50.9025L325.789 50.3111L325.788 50.3125L326.595 50.9025ZM326.573 38.7525L325.775 39.355L325.781 39.3637L326.573 38.7525ZM317.505 37.5375L318.074 38.3602L318.082 38.3545L317.505 37.5375ZM315.233 40.485L316.162 40.8545L316.164 40.8507L315.233 40.485ZM316.245 50.9475L317.04 50.34L317.04 50.34L316.245 50.9475ZM321.398 56.675C319.122 56.675 317.202 56.164 315.598 55.1801L314.552 56.8849C316.519 58.091 318.813 58.675 321.398 58.675V56.675ZM315.598 55.1801C313.975 54.1845 312.721 52.8174 311.827 51.0572L310.044 51.9628C311.1 54.0426 312.605 55.6905 314.552 56.8849L315.598 55.1801ZM311.831 51.0656C310.95 49.29 310.495 47.2189 310.495 44.8275H308.495C308.495 47.4761 309 49.86 310.04 51.9544L311.831 51.0656ZM310.495 44.8275C310.495 42.4243 310.964 40.3589 311.869 38.6033L310.092 37.6867C309.017 39.7711 308.495 42.1607 308.495 44.8275H310.495ZM311.871 38.6005C312.779 36.8247 314.039 35.468 315.655 34.5038L314.63 32.7862C312.677 33.952 311.162 35.5953 310.09 37.6895L311.871 38.6005ZM315.66 34.5006C317.268 33.528 319.169 33.025 321.398 33.025V31.025C318.857 31.025 316.588 31.602 314.625 32.7894L315.66 34.5006ZM321.398 33.025C323.673 33.025 325.594 33.536 327.197 34.5199L328.243 32.8151C326.277 31.609 323.982 31.025 321.398 31.025V33.025ZM327.197 34.5199C328.82 35.5155 330.075 36.8826 330.969 38.6428L332.752 37.7372C331.696 35.6574 330.19 34.0095 328.243 32.8151L327.197 34.5199ZM330.969 38.6428C331.862 40.4012 332.323 42.4541 332.323 44.8275H334.323C334.323 42.1909 333.809 39.8188 332.752 37.7372L330.969 38.6428ZM332.323 44.8275C332.323 47.2305 331.854 49.3047 330.948 51.077L332.728 51.988C333.801 49.8903 334.323 47.4945 334.323 44.8275H332.323ZM330.946 51.0797C330.052 52.8399 328.798 54.207 327.175 55.2026L328.221 56.9074C330.168 55.713 331.673 54.0651 332.729 51.9853L330.946 51.0797ZM327.18 55.1994C325.575 56.1709 323.66 56.675 321.398 56.675V58.675C323.966 58.675 326.251 58.0991 328.215 56.9106L327.18 55.1994ZM321.398 54.2425C323.969 54.2425 326.035 53.3641 327.403 51.4925L325.788 50.3125C324.876 51.5609 323.477 52.2425 321.398 52.2425V54.2425ZM327.402 51.4939C328.713 49.7063 329.328 47.4579 329.328 44.8275H327.328C327.328 47.1471 326.788 48.9487 325.789 50.3111L327.402 51.4939ZM329.328 44.8275C329.328 42.143 328.708 39.8807 327.364 38.1413L325.781 39.3637C326.778 40.6543 327.328 42.442 327.328 44.8275H329.328ZM327.371 38.15C325.989 36.319 323.937 35.4575 321.398 35.4575V37.4575C323.449 37.4575 324.847 38.126 325.775 39.355L327.371 38.15ZM321.398 35.4575C319.671 35.4575 318.157 35.8536 316.929 36.7205L318.082 38.3545C318.894 37.7814 319.975 37.4575 321.398 37.4575V35.4575ZM316.937 36.7149C315.738 37.5432 314.863 38.6922 314.302 40.1193L316.164 40.8507C316.593 39.7578 317.232 38.9418 318.074 38.3601L316.937 36.7149ZM314.304 40.1155C313.752 41.5019 313.49 43.0793 313.49 44.8275H315.49C315.49 43.2757 315.723 41.9581 316.162 40.8545L314.304 40.1155ZM313.49 44.8275C313.49 47.5261 314.11 49.8015 315.451 51.5549L317.04 50.34C316.041 49.0335 315.49 47.2289 315.49 44.8275H313.49ZM315.451 51.5549C316.845 53.3776 318.883 54.2425 321.398 54.2425V52.2425C319.382 52.2425 317.986 51.5774 317.04 50.34L315.451 51.5549ZM342.563 57L341.607 57.292L341.823 58H342.563V57ZM335.138 32.6775L335.143 31.6775L333.785 31.671L334.182 32.9695L335.138 32.6775ZM339.796 32.7L340.752 32.4083L340.537 31.7036L339.801 31.7L339.796 32.7ZM344.881 49.3725L343.924 49.6642L344.877 52.7866L345.837 49.6666L344.881 49.3725ZM350.011 32.7V31.7H349.272L349.055 32.4059L350.011 32.7ZM354.061 32.7L355.017 32.4059L354.799 31.7H354.061V32.7ZM359.191 49.3725L358.235 49.6666L359.195 52.7866L360.147 49.6642L359.191 49.3725ZM364.276 32.7V31.7H363.535L363.319 32.4083L364.276 32.7ZM368.911 32.7L369.867 32.9922L370.262 31.7H368.911V32.7ZM361.486 57V58H362.226L362.442 57.2922L361.486 57ZM357.706 57L356.754 57.3067L356.977 58H357.706V57ZM352.036 39.405L352.988 39.0983L352.038 36.1505L351.084 39.0972L352.036 39.405ZM346.343 57V58H347.071L347.295 57.3078L346.343 57ZM343.52 56.708L336.095 32.3855L334.182 32.9695L341.607 57.292L343.52 56.708ZM335.133 33.6775L339.791 33.7L339.801 31.7L335.143 31.6775L335.133 33.6775ZM338.839 32.9917L343.924 49.6642L345.837 49.0808L340.752 32.4083L338.839 32.9917ZM345.837 49.6666L350.967 32.9941L349.055 32.4059L343.925 49.0784L345.837 49.6666ZM350.011 33.7H354.061V31.7H350.011V33.7ZM353.105 32.9941L358.235 49.6666L360.147 49.0784L355.017 32.4059L353.105 32.9941ZM360.147 49.6642L365.232 32.9917L363.319 32.4083L358.234 49.0808L360.147 49.6642ZM364.276 33.7H368.911V31.7H364.276V33.7ZM367.954 32.4078L360.529 56.7078L362.442 57.2922L369.867 32.9922L367.954 32.4078ZM361.486 56H357.706V58H361.486V56ZM358.658 56.6933L352.988 39.0983L351.084 39.7117L356.754 57.3067L358.658 56.6933ZM351.084 39.0972L345.392 56.6922L347.295 57.3078L352.987 39.7128L351.084 39.0972ZM346.343 56H342.563V58H346.343V56ZM376.111 56.01L376.649 55.1669L376.649 55.1669L376.111 56.01ZM372.106 51.4425L371.202 51.87L371.205 51.8757L372.106 51.4425ZM370.711 44.85L369.711 44.844L369.711 44.8561L370.711 44.85ZM372.151 38.2125L373.048 38.6541L373.05 38.6513L372.151 38.2125ZM376.201 33.6675L375.672 32.8191L375.672 32.8191L376.201 33.6675ZM389.319 34.005L388.743 34.8227L388.746 34.8248L389.319 34.005ZM393.054 39.4275L393.331 40.3883L394.268 40.118L394.021 39.1746L393.054 39.4275ZM388.374 40.7775L387.427 41.1L387.735 42.0026L388.651 41.7383L388.374 40.7775ZM386.079 37.605L385.49 38.4132L385.496 38.418L385.503 38.4226L386.079 37.605ZM378.654 37.56L379.242 38.3688L379.25 38.3629L378.654 37.56ZM376.449 40.53L375.514 40.174L375.514 40.174L376.449 40.53ZM375.706 44.85L374.706 44.8407L374.706 44.8484L374.706 44.856L375.706 44.85ZM377.416 50.925L376.608 51.5136L376.611 51.5187L377.416 50.925ZM386.124 52.2075L386.719 53.0106L386.722 53.009L386.124 52.2075ZM388.284 49.1925L388.513 48.2192L387.66 48.0179L387.349 48.8378L388.284 49.1925ZM393.054 50.3175L394.002 50.6355L394.35 49.5959L393.283 49.3442L393.054 50.3175ZM389.116 55.785L389.683 56.6087L389.688 56.6055L389.116 55.785ZM382.456 56.675C380.117 56.675 378.198 56.155 376.649 55.1669L375.573 56.8531C377.504 58.085 379.815 58.675 382.456 58.675V56.675ZM376.649 55.1669C375.072 54.1612 373.86 52.7836 373.007 51.0093L371.205 51.8757C372.212 53.9714 373.67 55.6388 375.573 56.8531L376.649 55.1669ZM373.01 51.015C372.166 49.2301 371.725 47.1798 371.711 44.8439L369.711 44.8561C369.727 47.4402 370.216 49.7849 371.202 51.87L373.01 51.015ZM371.711 44.856C371.725 42.4764 372.181 40.4172 373.048 38.6541L371.254 37.7709C370.232 39.8478 369.727 42.2136 369.711 44.844L371.711 44.856ZM373.05 38.6513C373.916 36.8775 375.141 35.5075 376.73 34.5159L375.672 32.8191C373.751 34.0175 372.276 35.6775 371.253 37.7737L373.05 38.6513ZM376.73 34.5159C378.299 33.5374 380.215 33.025 382.524 33.025V31.025C379.912 31.025 377.613 31.6076 375.672 32.8191L376.73 34.5159ZM382.524 33.025C385.006 33.025 387.062 33.6393 388.743 34.8227L389.894 33.1873C387.825 31.7307 385.351 31.025 382.524 31.025V33.025ZM388.746 34.8248C390.435 36.0045 391.544 37.608 392.086 39.6804L394.021 39.1746C393.363 36.657 391.982 34.6455 389.891 33.1852L388.746 34.8248ZM392.776 38.4667L388.096 39.8167L388.651 41.7383L393.331 40.3883L392.776 38.4667ZM389.32 40.455C388.795 38.9124 387.911 37.6721 386.654 36.7874L385.503 38.4226C386.377 39.0379 387.023 39.9126 387.427 41.1L389.32 40.455ZM386.667 36.7968C385.437 35.9006 384.021 35.4575 382.456 35.4575V37.4575C383.621 37.4575 384.62 37.7794 385.49 38.4132L386.667 36.7968ZM382.456 35.4575C380.751 35.4575 379.259 35.8648 378.058 36.7571L379.25 38.3629C380.028 37.7852 381.071 37.4575 382.456 37.4575V35.4575ZM378.065 36.7513C376.903 37.5968 376.056 38.7518 375.514 40.174L377.383 40.886C377.801 39.7882 378.424 38.9632 379.242 38.3687L378.065 36.7513ZM375.514 40.174C374.984 41.5646 374.722 43.1254 374.706 44.8407L376.706 44.8593C376.72 43.3346 376.953 42.0154 377.383 40.886L375.514 40.174ZM374.706 44.856C374.722 47.5058 375.326 49.7536 376.608 51.5136L378.225 50.3364C377.256 49.0064 376.72 47.2042 376.706 44.844L374.706 44.856ZM376.611 51.5187C377.971 53.3616 379.975 54.2425 382.456 54.2425V52.2425C380.497 52.2425 379.141 51.5784 378.221 50.3313L376.611 51.5187ZM382.456 54.2425C384.12 54.2425 385.571 53.8629 386.719 53.0106L385.528 51.4044C384.817 51.9321 383.823 52.2425 382.456 52.2425V54.2425ZM386.722 53.009C387.845 52.1707 388.669 50.997 389.219 49.5472L387.349 48.8378C386.909 49.998 386.292 50.8343 385.526 51.406L386.722 53.009ZM388.054 50.1658L392.824 51.2908L393.283 49.3442L388.513 48.2192L388.054 50.1658ZM392.106 49.9995C391.37 52.1917 390.177 53.8269 388.544 54.9645L389.688 56.6055C391.715 55.1931 393.147 53.1833 394.002 50.6355L392.106 49.9995ZM388.549 54.9614C386.913 56.0875 384.9 56.675 382.456 56.675V58.675C385.232 58.675 387.659 58.0025 389.683 56.6086L388.549 54.9614ZM399.67 56.685L399.184 57.5592L399.192 57.5637L399.67 56.685ZM396.902 54.03L396.027 54.5146L396.031 54.5217L396.035 54.5287L396.902 54.03ZM396.632 47.145L395.726 46.7213L395.726 46.7213L396.632 47.145ZM398.567 44.7825L399.169 45.5809L399.178 45.5741L398.567 44.7825ZM401.717 43.185L401.437 42.225L401.422 42.2293L401.408 42.234L401.717 43.185ZM405.385 42.3525L405.558 43.3374L405.558 43.3374L405.385 42.3525ZM409.682 41.6775L409.545 40.687L409.544 40.6872L409.682 41.6775ZM414.182 41.0475L414.666 41.9227L414.042 40.0574L414.182 41.0475ZM412.472 41.9925L411.472 41.9768L411.445 43.7026L412.956 42.8677L412.472 41.9925ZM411.257 37.7625L410.509 38.4261L410.515 38.4325L410.521 38.4388L411.257 37.7625ZM403.472 37.2675L403.954 38.144L403.963 38.1387L403.472 37.2675ZM401.245 40.1925L400.951 41.1483L401.906 41.4424L402.2 40.4866L401.245 40.1925ZM396.857 38.8425L395.896 38.566L395.625 39.5095L396.563 39.7983L396.857 38.8425ZM400.277 33.87L399.69 33.0606L399.686 33.0631L400.277 33.87ZM412.697 33.15L412.274 34.056L412.284 34.0607L412.697 33.15ZM416.252 36.66L415.346 37.0833L415.35 37.0919L415.354 37.1004L416.252 36.66ZM416.972 39.18L415.977 39.2812L415.977 39.2812L416.972 39.18ZM417.107 57V58H418.107V57H417.107ZM412.945 57H411.945V58H412.945V57ZM412.945 51.4425L413.609 50.6951L411.945 49.2157V51.4425H412.945ZM413.755 52.1625L414.634 52.6379L415.011 51.9412L414.419 51.4151L413.755 52.1625ZM409.907 56.325L410.411 57.1891L410.413 57.1876L409.907 56.325ZM408.467 53.13L408.903 54.0301L408.914 54.0244L408.467 53.13ZM410.785 51.3075L410.002 50.6848L410.002 50.6848L410.785 51.3075ZM411.932 49.0125L410.99 48.6787L410.97 48.7342L410.957 48.7917L411.932 49.0125ZM412.36 46.5825L411.361 46.5326L411.361 46.5409L411.36 46.5492L412.36 46.5825ZM412.427 44.4225L412.772 43.4839L411.427 42.9894V44.4225H412.427ZM413.957 44.985L414.107 45.9737L414.302 44.0464L413.957 44.985ZM409.907 45.5925L410.054 46.5817L410.054 46.5817L409.907 45.5925ZM406.6 46.1325L406.767 47.1186L406.779 47.1164L406.6 46.1325ZM403.99 46.74L403.69 45.7859L403.675 45.7906L403.66 45.7958L403.99 46.74ZM402.257 47.55L401.732 46.6991L401.72 46.7063L402.257 47.55ZM401.065 48.6975L400.233 48.1428L400.226 48.1525L400.22 48.1624L401.065 48.6975ZM401.11 52.095L400.246 52.5989L400.252 52.6095L401.11 52.095ZM402.55 53.355L402.111 54.2536L402.111 54.2536L402.55 53.355ZM404.192 56.675C402.51 56.675 401.178 56.3663 400.147 55.8063L399.192 57.5637C400.591 58.3237 402.274 58.675 404.192 58.675V56.675ZM400.155 55.8108C399.083 55.2149 398.299 54.4533 397.769 53.5313L396.035 54.5287C396.765 55.7967 397.827 56.8051 399.184 57.5592L400.155 55.8108ZM397.777 53.5454C397.247 52.5897 396.98 51.5425 396.98 50.385H394.98C394.98 51.8675 395.327 53.2503 396.027 54.5146L397.777 53.5454ZM396.98 50.385C396.98 49.2728 397.176 48.3424 397.538 47.5687L395.726 46.7213C395.218 47.8076 394.98 49.0372 394.98 50.385H396.98ZM397.538 47.5687C397.901 46.7929 398.439 46.132 399.169 45.5808L397.965 43.9842C396.986 44.723 396.234 45.6371 395.726 46.7213L397.538 47.5687ZM399.178 45.5741C399.926 44.9972 400.868 44.5128 402.027 44.1359L401.408 42.234C400.076 42.6672 398.919 43.2478 397.956 43.9909L399.178 45.5741ZM401.997 44.145C403.035 43.8423 404.221 43.5724 405.558 43.3374L405.212 41.3676C403.818 41.6126 402.559 41.8977 401.437 42.225L401.997 44.145ZM405.558 43.3374C406.91 43.0996 408.331 42.8764 409.821 42.6678L409.544 40.6872C408.033 40.8986 406.589 41.1254 405.212 41.3676L405.558 43.3374ZM409.819 42.668C411.335 42.4579 412.836 42.2478 414.322 42.0376L414.042 40.0574C412.558 40.2672 411.059 40.4771 409.545 40.687L409.819 42.668ZM413.699 40.1723L411.989 41.1173L412.956 42.8677L414.666 41.9227L413.699 40.1723ZM413.472 42.0082C413.504 39.9801 413.08 38.2689 411.994 37.0862L410.521 38.4388C411.115 39.0861 411.5 40.1949 411.472 41.9768L413.472 42.0082ZM412.005 37.0989C410.899 35.8519 409.118 35.3675 406.982 35.3675V37.3675C408.896 37.3675 409.965 37.8131 410.509 38.4261L412.005 37.0989ZM406.982 35.3675C405.543 35.3675 404.203 35.7081 402.981 36.3963L403.963 38.1387C404.872 37.6269 405.871 37.3675 406.982 37.3675V35.3675ZM402.991 36.391C401.658 37.1228 400.771 38.3317 400.289 39.8984L402.2 40.4866C402.558 39.3233 403.156 38.5822 403.954 38.144L402.991 36.391ZM401.539 39.2367L397.151 37.8867L396.563 39.7983L400.951 41.1483L401.539 39.2367ZM397.818 39.119C398.36 37.2373 399.375 35.7702 400.868 34.6769L399.686 33.0631C397.82 34.4298 396.555 36.2777 395.896 38.566L397.818 39.119ZM400.865 34.6794C402.339 33.6092 404.362 33.025 407.027 33.025V31.025C404.082 31.025 401.605 31.6708 399.69 33.0606L400.865 34.6794ZM407.027 33.025C409.088 33.025 410.828 33.3804 412.274 34.056L413.121 32.244C411.356 31.4196 409.316 31.025 407.027 31.025V33.025ZM412.284 34.0607C413.688 34.6976 414.698 35.6953 415.346 37.0833L417.158 36.2366C416.307 34.4147 414.946 33.0724 413.11 32.2393L412.284 34.0607ZM415.354 37.1004C415.692 37.7885 415.899 38.5136 415.977 39.2812L417.967 39.0788C417.865 38.0764 417.592 37.1215 417.15 36.2196L415.354 37.1004ZM415.977 39.2812C416.063 40.1281 416.107 41.0465 416.107 42.0375H418.107C418.107 40.9885 418.061 40.0019 417.967 39.0788L415.977 39.2812ZM416.107 42.0375V57H418.107V42.0375H416.107ZM417.107 56H412.945V58H417.107V56ZM413.945 57V51.4425H411.945V57H413.945ZM412.28 52.1899L413.09 52.9099L414.419 51.4151L413.609 50.6951L412.28 52.1899ZM412.875 51.6871C411.942 53.4139 410.779 54.6546 409.401 55.4624L410.413 57.1876C412.156 56.1654 413.557 54.6311 414.634 52.6379L412.875 51.6871ZM409.404 55.4609C408.047 56.2511 406.327 56.675 404.192 56.675V58.675C406.588 58.675 408.677 58.1989 410.411 57.1891L409.404 55.4609ZM405.025 54.8275C406.474 54.8275 407.777 54.5752 408.903 54.03L408.031 52.23C407.237 52.6148 406.246 52.8275 405.025 52.8275V54.8275ZM408.914 54.0244C409.986 53.4886 410.879 52.7943 411.567 51.9302L410.002 50.6848C409.52 51.2907 408.868 51.8114 408.02 52.2356L408.914 54.0244ZM411.567 51.9302C412.232 51.0954 412.69 50.1959 412.908 49.2333L410.957 48.7917C410.815 49.4191 410.508 50.0496 410.002 50.6848L411.567 51.9302ZM412.875 49.3463C413.17 48.5142 413.326 47.6005 413.359 46.6158L411.36 46.5492C411.333 47.3645 411.205 48.0708 410.99 48.6787L412.875 49.3463ZM413.358 46.6324C413.404 45.7252 413.427 44.9865 413.427 44.4225H411.427C411.427 44.9385 411.406 45.6398 411.361 46.5326L413.358 46.6324ZM412.082 45.3611L413.612 45.9236L414.302 44.0464L412.772 43.4839L412.082 45.3611ZM413.807 43.9963C412.323 44.2212 410.974 44.4235 409.761 44.6033L410.054 46.5817C411.27 46.4015 412.621 46.1988 414.107 45.9737L413.807 43.9963ZM409.761 44.6033C408.537 44.7846 407.424 44.9663 406.421 45.1486L406.779 47.1164C407.756 46.9387 408.847 46.7604 410.054 46.5817L409.761 44.6033ZM406.433 45.1465C405.423 45.3174 404.507 45.5295 403.69 45.7859L404.289 47.6941C405.002 47.4705 405.826 47.2776 406.767 47.1185L406.433 45.1465ZM403.66 45.7958C402.956 46.0415 402.311 46.3412 401.732 46.6992L402.783 48.4008C403.223 48.1288 403.733 47.8885 404.319 47.6842L403.66 45.7958ZM401.72 46.7063C401.118 47.0897 400.616 47.5674 400.233 48.1428L401.897 49.2522C402.113 48.9276 402.406 48.6403 402.794 48.3937L401.72 46.7063ZM400.22 48.1624C399.814 48.8034 399.637 49.5458 399.637 50.34H401.637C401.637 49.8442 401.745 49.4916 401.91 49.2326L400.22 48.1624ZM399.637 50.34C399.637 51.1456 399.841 51.9047 400.246 52.5989L401.973 51.5911C401.748 51.2053 401.637 50.7944 401.637 50.34H399.637ZM400.252 52.6095C400.683 53.3272 401.323 53.8686 402.111 54.2536L402.989 52.4564C402.487 52.2114 402.167 51.9128 401.967 51.5805L400.252 52.6095ZM402.111 54.2536C402.936 54.6565 403.925 54.8275 405.025 54.8275V52.8275C404.115 52.8275 403.453 52.6835 402.989 52.4564L402.111 54.2536ZM425.02 55.695L424.445 56.5136L425.02 55.695ZM421.6 50.1825L421.447 49.1942L420.437 49.35L420.615 50.357L421.6 50.1825ZM426.415 49.44L427.388 49.2084L427.174 48.3111L426.262 48.4517L426.415 49.44ZM428.485 52.4325L427.922 53.2592L427.929 53.2637L427.935 53.2681L428.485 52.4325ZM436 52.6125L435.419 51.7987L435.412 51.8038L436 52.6125ZM436.81 48.6525L436.002 49.2425L436.015 49.2601L436.029 49.2772L436.81 48.6525ZM434.987 47.55L434.639 48.4876L434.639 48.4876L434.987 47.55ZM430.735 46.2675L430.993 45.3015L430.986 45.2994L430.735 46.2675ZM425.762 44.535L425.302 45.4228L425.309 45.4261L425.315 45.4294L425.762 44.535ZM423.152 42.3525L422.298 42.8715L422.303 42.8805L422.309 42.8894L423.152 42.3525ZM423.557 35.4675L424.372 36.0477L424.372 36.0477L423.557 35.4675ZM426.842 32.925L426.454 32.0034L426.451 32.0048L426.842 32.925ZM436.81 32.9025L437.183 31.9747L437.183 31.9747L436.81 32.9025ZM440.342 35.4L439.574 36.0402L439.579 36.0455L440.342 35.4ZM441.962 39.1575L442.142 40.1413L443.072 39.9718L442.955 39.0335L441.962 39.1575ZM437.147 40.035L436.157 40.1746L436.302 41.2054L437.327 41.0188L437.147 40.035ZM435.505 37.2675L434.917 38.0768L434.917 38.0768L435.505 37.2675ZM431.882 36.165L431.84 37.1641L431.842 37.1642L431.882 36.165ZM428.417 36.885L428.928 37.7451L428.938 37.7386L428.417 36.885ZM427.585 40.44L426.834 41.1006L426.841 41.1089L426.849 41.1171L427.585 40.44ZM433.885 42.7575L434.134 41.789L434.129 41.7878L433.885 42.7575ZM438.745 44.5125L438.271 45.3934L438.28 45.3979L438.745 44.5125ZM441.31 46.785L440.443 47.2843L440.448 47.293L440.454 47.3017L441.31 46.785ZM439.465 55.605L438.851 54.8156L438.848 54.8182L439.465 55.605ZM432.242 56.6525C429.431 56.6525 427.242 56.0324 425.594 54.8764L424.445 56.5136C426.518 57.9676 429.143 58.6525 432.242 58.6525V56.6525ZM425.594 54.8764C423.965 53.7331 422.961 52.1346 422.584 50.008L420.615 50.357C421.078 52.9704 422.355 55.0469 424.445 56.5136L425.594 54.8764ZM421.752 51.1708L426.567 50.4283L426.262 48.4517L421.447 49.1942L421.752 51.1708ZM425.442 49.6716C425.8 51.1765 426.638 52.3853 427.922 53.2592L429.047 51.6058C428.172 51.0097 427.629 50.2235 427.388 49.2084L425.442 49.6716ZM427.935 53.2681C429.228 54.1182 430.788 54.5125 432.557 54.5125V52.5125C431.086 52.5125 429.931 52.1868 429.034 51.5969L427.935 53.2681ZM432.557 54.5125C434.149 54.5125 435.532 54.1895 436.588 53.4212L435.412 51.8038C434.818 52.2355 433.906 52.5125 432.557 52.5125V54.5125ZM436.581 53.4262C437.689 52.6347 438.26 51.5039 438.26 50.1375H436.26C436.26 50.8711 435.99 51.3903 435.419 51.7988L436.581 53.4262ZM438.26 50.1375C438.26 49.3601 438.068 48.6248 437.591 48.0278L436.029 49.2772C436.151 49.4302 436.26 49.6849 436.26 50.1375H438.26ZM437.617 48.0625C437.146 47.418 436.291 46.9671 435.335 46.6124L434.639 48.4876C435.543 48.8229 435.903 49.107 436.002 49.2425L437.617 48.0625ZM435.335 46.6124C434.36 46.2506 432.905 45.8134 430.993 45.3015L430.476 47.2335C432.374 47.7416 433.755 48.1594 434.639 48.4876L435.335 46.6124ZM430.986 45.2994C428.935 44.7683 427.352 44.2118 426.21 43.6406L425.315 45.4294C426.633 46.0882 428.365 46.6867 430.484 47.2356L430.986 45.2994ZM426.223 43.6472C425.105 43.0676 424.396 42.4441 423.996 41.8156L422.309 42.8894C422.959 43.9109 423.99 44.7424 425.302 45.4228L426.223 43.6472ZM424.007 41.8335C423.61 41.1794 423.387 40.3548 423.387 39.315H421.387C421.387 40.6452 421.675 41.8456 422.298 42.8715L424.007 41.8335ZM423.387 39.315C423.387 38.0326 423.724 36.9574 424.372 36.0477L422.743 34.8873C421.831 36.1676 421.387 37.6574 421.387 39.315H423.387ZM424.372 36.0477C425.031 35.1229 425.969 34.3833 427.234 33.8452L426.451 32.0048C424.895 32.6667 423.644 33.6221 422.743 34.8873L424.372 36.0477ZM427.23 33.8466C428.508 33.3089 430.036 33.025 431.837 33.025V31.025C429.829 31.025 428.027 31.3411 426.454 32.0034L427.23 33.8466ZM431.837 33.025C433.593 33.025 435.12 33.301 436.437 33.8303L437.183 31.9747C435.589 31.334 433.802 31.025 431.837 31.025V33.025ZM436.437 33.8303C437.756 34.3608 438.792 35.1014 439.574 36.0402L441.111 34.7598C440.093 33.5386 438.773 32.6141 437.183 31.9747L436.437 33.8303ZM439.579 36.0455C440.348 36.9562 440.813 38.0255 440.97 39.2815L442.955 39.0335C442.752 37.4095 442.136 35.9738 441.106 34.7545L439.579 36.0455ZM441.783 38.1737L436.968 39.0512L437.327 41.0188L442.142 40.1413L441.783 38.1737ZM438.138 39.8954C437.936 38.4653 437.249 37.2975 436.092 36.4582L434.917 38.0768C435.621 38.5875 436.029 39.2647 436.157 40.1746L438.138 39.8954ZM436.092 36.4582C434.962 35.6377 433.548 35.2315 431.923 35.1658L431.842 37.1642C433.187 37.2185 434.188 37.5473 434.917 38.0768L436.092 36.4582ZM431.924 35.1659C430.374 35.1006 429.003 35.3561 427.896 36.0314L428.938 37.7386C429.601 37.3339 430.541 37.1094 431.84 37.1641L431.924 35.1659ZM427.907 36.0249C426.757 36.707 426.09 37.7414 426.09 39.0675H428.09C428.09 38.5336 428.307 38.113 428.928 37.7451L427.907 36.0249ZM426.09 39.0675C426.09 39.8294 426.33 40.5276 426.834 41.1006L428.336 39.7794C428.18 39.6024 428.09 39.3856 428.09 39.0675H426.09ZM426.849 41.1171C427.369 41.6827 428.23 42.1084 429.231 42.4627L429.898 40.5773C428.95 40.2416 428.49 39.9473 428.321 39.7629L426.849 41.1171ZM429.231 42.4627C430.251 42.8235 431.727 43.245 433.64 43.7272L434.129 41.7878C432.233 41.31 430.829 40.9065 429.898 40.5773L429.231 42.4627ZM433.636 43.7259C435.635 44.2405 437.17 44.8012 438.271 45.3933L439.218 43.6317C437.92 42.9338 436.215 42.3245 434.134 41.7891L433.636 43.7259ZM438.28 45.3979C439.366 45.968 440.054 46.609 440.443 47.2843L442.176 46.2857C441.545 45.191 440.524 44.317 439.21 43.6271L438.28 45.3979ZM440.454 47.3017C440.865 47.9841 441.097 48.8537 441.097 49.9575H443.097C443.097 48.5713 442.804 47.3259 442.166 46.2683L440.454 47.3017ZM441.097 49.9575C441.097 52.0772 440.341 53.6568 438.851 54.8156L440.079 56.3944C442.099 54.8232 443.097 52.6378 443.097 49.9575H441.097ZM438.848 54.8182C437.341 56 435.179 56.6525 432.242 56.6525V58.6525C435.455 58.6525 438.109 57.94 440.082 56.3918L438.848 54.8182ZM451.486 56.1L450.98 56.9625L450.988 56.9674L451.486 56.1ZM447.233 51.6675L446.349 52.1341L446.353 52.1424L447.233 51.6675ZM447.211 38.145L446.322 37.6869L446.319 37.6923L447.211 38.145ZM451.396 33.6225L450.883 32.7637L450.883 32.7637L451.396 33.6225ZM463.951 33.7575L463.398 34.5907L463.403 34.594L463.951 33.7575ZM467.843 38.64L466.916 39.0148L466.918 39.0204L467.843 38.64ZM468.878 46.1775V47.1775H469.818L469.876 46.2392L468.878 46.1775ZM464.176 46.1775H463.176V47.1775H464.176V46.1775ZM464.176 44.4675L465.176 44.4675L465.176 44.4569L464.176 44.4675ZM462.556 38.2125L461.762 38.8209L461.766 38.8264L462.556 38.2125ZM452.498 38.415L453.28 39.0387L453.28 39.0387L452.498 38.415ZM452.498 51.06L451.72 51.6876L451.723 51.6915L452.498 51.06ZM461.431 52.2525L461.958 53.1025L461.961 53.1005L461.431 52.2525ZM463.951 49.3725L464.253 48.4193L463.426 48.1572L463.05 48.9384L463.951 49.3725ZM468.563 50.835L469.48 51.2335L469.922 50.2168L468.866 49.8818L468.563 50.835ZM464.266 55.8975L464.791 56.7485L464.796 56.7455L464.266 55.8975ZM449.191 46.1775H448.191V47.1775H449.191V46.1775ZM449.191 42.51V41.51H448.191V42.51H449.191ZM466.538 42.51H467.538V41.51H466.538V42.51ZM466.538 46.1775V47.1775H467.538V46.1775H466.538ZM457.853 56.675C455.587 56.675 453.641 56.1838 451.983 55.2326L450.988 56.9674C452.99 58.1162 455.289 58.675 457.853 58.675V56.675ZM451.992 55.2375C450.338 54.2671 449.048 52.9251 448.113 51.1926L446.353 52.1424C447.458 54.1899 449.004 55.8029 450.98 56.9625L451.992 55.2375ZM448.118 51.2009C447.2 49.4615 446.726 47.4215 446.726 45.0525H444.726C444.726 47.6935 445.256 50.0635 446.349 52.1341L448.118 51.2009ZM446.726 45.0525C446.726 42.5216 447.197 40.3805 448.102 38.5977L446.319 37.6923C445.244 39.8095 444.726 42.2734 444.726 45.0525H446.726ZM448.1 38.6031C449.024 36.8096 450.293 35.4451 451.908 34.4813L450.883 32.7637C448.929 33.9299 447.408 35.5804 446.322 37.6869L448.1 38.6031ZM451.908 34.4813C453.517 33.5211 455.413 33.025 457.628 33.025V31.025C455.104 31.025 452.844 31.5939 450.883 32.7637L451.908 34.4813ZM457.628 33.025C459.944 33.025 461.85 33.5633 463.398 34.5907L464.504 32.9243C462.572 31.6417 460.263 31.025 457.628 31.025V33.025ZM463.403 34.594C464.956 35.6115 466.13 37.0696 466.916 39.0148L468.77 38.2652C467.847 35.9804 466.426 34.1835 464.499 32.921L463.403 34.594ZM466.918 39.0204C467.717 40.9625 468.053 43.3166 467.88 46.1158L469.876 46.2392C470.063 43.2184 469.709 40.5475 468.768 38.2596L466.918 39.0204ZM468.878 45.1775H464.176V47.1775H468.878V45.1775ZM465.176 46.1775V44.4675H463.176V46.1775H465.176ZM465.176 44.4569C465.145 41.5481 464.592 39.2015 463.345 37.5986L461.766 38.8264C462.62 39.9235 463.147 41.7469 463.176 44.4781L465.176 44.4569ZM463.349 37.6041C462.078 35.9458 460.163 35.1875 457.808 35.1875V37.1875C459.714 37.1875 460.964 37.7792 461.762 38.8209L463.349 37.6041ZM457.808 35.1875C455.229 35.1875 453.136 36.0122 451.717 37.7913L453.28 39.0387C454.23 37.8478 455.677 37.1875 457.808 37.1875V35.1875ZM451.717 37.7913C450.337 39.5205 449.721 41.9224 449.721 44.85H451.721C451.721 42.1676 452.29 40.2795 453.28 39.0387L451.717 37.7913ZM449.721 44.85C449.721 47.6556 450.342 49.979 451.72 51.6876L453.277 50.4324C452.284 49.201 451.721 47.3844 451.721 44.85H449.721ZM451.723 51.6915C453.135 53.425 455.156 54.2425 457.628 54.2425V52.2425C455.63 52.2425 454.232 51.605 453.274 50.4285L451.723 51.6915ZM457.628 54.2425C459.252 54.2425 460.709 53.8765 461.958 53.1025L460.904 51.4025C460.023 51.9485 458.945 52.2425 457.628 52.2425V54.2425ZM461.961 53.1005C463.215 52.3168 464.177 51.2068 464.852 49.8066L463.05 48.9384C462.525 50.0282 461.807 50.8382 460.901 51.4045L461.961 53.1005ZM463.649 50.3257L468.261 51.7882L468.866 49.8818L464.253 48.4193L463.649 50.3257ZM467.646 50.4365C466.778 52.4353 465.476 53.962 463.736 55.0495L464.796 56.7455C466.896 55.433 468.459 53.5847 469.48 51.2335L467.646 50.4365ZM463.741 55.0465C461.986 56.1297 460.031 56.675 457.853 56.675V58.675C460.385 58.675 462.706 58.0353 464.791 56.7485L463.741 55.0465ZM450.191 46.1775V42.51H448.191V46.1775H450.191ZM449.191 43.51H466.538V41.51H449.191V43.51ZM465.538 42.51V46.1775H467.538V42.51H465.538ZM466.538 45.1775H449.191V47.1775H466.538V45.1775Z" fill="black" mask="url(#path-4-outside-1_1_14)"/>
</g>
<defs>
<clipPath id="clip0_1_14">
<rect width="502" height="75.3645" fill="white"/>
</clipPath>
</defs>
</svg>
